<mxfile host="65bd71144e">
    <diagram name="ページ1" id="wdXBag7NcmLRrbB8cPSW">
        <mxGraphModel dx="19963" dy="21223" grid="1" gridSize="10" guides="1" tooltips="1" connect="1" arrows="1" fold="1" page="1" pageScale="1" pageWidth="827" pageHeight="1169" math="0" shadow="0">
            <root>
                <mxCell id="0"/>
                <mxCell id="1" parent="0"/>
                <UserObject label="" mermaidData="{&#xa;  &quot;data&quot;: &quot;flowchart TD\n    A[Start Process]\n    B[Get Pending Task from DB mission id]\n    C{Task found?}\n    D[Display No pending tasks and wait 10 seconds]\n    E[Set mission id from DB]\n    F[Log task start in DB]\n    G[Clear previous callback response]\n    H[Disable smart charge via API setSmartChargeOff]\n    I[Call MissionWorks API with mission id, mission code, runtime param, callback url]\n    J[Extract runtime id from response]\n    K{runtime id obtained?}\n    L[Store runtime id in global mapping mission id -&gt; runtime id]\n    M[Enter task execution loop]\n    N[Wait 10 seconds]\n    O[Get callback response using runtime id]\n    P{Is callback response Success?}\n    Q[Update task status to COMPLETED in DB and log completion]\n    R[Exit task execution loop]\n    S[Get AMR status from vehicles API]\n    T[Extract workStatus, abnormalStatus, battery level]\n    U{Is battery &lt;= 10%?}\n    V[Retrieve SMART_CHARGE config]\n    W[Loop until battery reaches configured minimum canChargeBatteryValue]\n    X[Continue execution after battery charge]\n    Y{Is AMR normal? workStatus == 1 and abnormalStatus == 1}\n    Z[Call continueTask API with runtime id]\n    AA{Is AMR charging or abnormal? workStatus == 3 or abnormalStatus != 1}\n    AB[Call pauseTask API with runtime id]\n    AC[Loop back to execution loop]\n    AD{Maximum attempts reached?}\n    AE[Log maximum attempts reached and exit loop]\n    AF[After task completion, check battery level]\n    AG{Is battery &lt;= 50%?}\n    AH[Enable smart charge via API setSmartChargeOn]\n    AI[Task execution complete]\n    AJ[End Process]\n    \n    A --&gt; B\n    B --&gt; C\n    C -- No --&gt; D\n    C -- Yes --&gt; E\n    E --&gt; F\n    F --&gt; G\n    G --&gt; H\n    H --&gt; I\n    I --&gt; J\n    J --&gt; K\n    K -- No --&gt; AE\n    K -- Yes --&gt; L\n    L --&gt; M\n    M --&gt; N\n    N --&gt; O\n    O --&gt; P\n    P -- Yes --&gt; Q\n    Q --&gt; R\n    P -- No --&gt; R\n    R --&gt; S\n    S --&gt; T\n    T --&gt; U\n    U -- Yes --&gt; V\n    V --&gt; W\n    W --&gt; X\n    U -- No --&gt; X\n    X --&gt; Y\n    Y -- Yes --&gt; Z\n    Y -- No --&gt; AA\n    AA --&gt; AC\n    Z --&gt; AC\n    AC --&gt; AD\n    AD -- Yes --&gt; AE\n    AD -- No --&gt; N\n    Q --&gt; AF\n    AF --&gt; AG\n    AG -- Yes --&gt; AH\n    AG -- No --&gt; AI\n    AH --&gt; AI\n    AI --&gt; AJ\n&quot;&#xa;}" id="2">
                    <mxCell style="shape=image;noLabel=1;verticalAlign=top;imageAspect=1;image=data:image/svg+xml,PHN2ZyBhcmlhLXJvbGVkZXNjcmlwdGlvbj0iZmxvd2NoYXJ0LXYyIiByb2xlPSJncmFwaGljcy1kb2N1bWVudCBkb2N1bWVudCIgdmlld0JveD0iMCAwIDEwMDcuNTkxNDkxNjk5MjE4OCA0MzQ1Ljg3NSIgc3R5bGU9Im1heC13aWR0aDogMTAwNy41OTE0OTE2OTkyMTg4cHg7IiBjbGFzcz0iZmxvd2NoYXJ0IiB4bWxucz0iaHR0cDovL3d3dy53My5vcmcvMjAwMC9zdmciIHdpZHRoPSIxMDAlIiBpZD0iZ2VNZXJtYWlkT3V0cHV0LTE3NDE5MjEwNTM3MTAiPjxzdHlsZT4jZ2VNZXJtYWlkT3V0cHV0LTE3NDE5MjEwNTM3MTB7Zm9udC1mYW1pbHk6InRyZWJ1Y2hldCBtcyIsdmVyZGFuYSxhcmlhbCxzYW5zLXNlcmlmO2ZvbnQtc2l6ZToxNnB4O2ZpbGw6IzAwMDAwMDt9I2dlTWVybWFpZE91dHB1dC0xNzQxOTIxMDUzNzEwIC5lcnJvci1pY29ue2ZpbGw6IzU1MjIyMjt9I2dlTWVybWFpZE91dHB1dC0xNzQxOTIxMDUzNzEwIC5lcnJvci10ZXh0e2ZpbGw6IzU1MjIyMjtzdHJva2U6IzU1MjIyMjt9I2dlTWVybWFpZE91dHB1dC0xNzQxOTIxMDUzNzEwIC5lZGdlLXRoaWNrbmVzcy1ub3JtYWx7c3Ryb2tlLXdpZHRoOjFweDt9I2dlTWVybWFpZE91dHB1dC0xNzQxOTIxMDUzNzEwIC5lZGdlLXRoaWNrbmVzcy10aGlja3tzdHJva2Utd2lkdGg6My41cHg7fSNnZU1lcm1haWRPdXRwdXQtMTc0MTkyMTA1MzcxMCAuZWRnZS1wYXR0ZXJuLXNvbGlke3N0cm9rZS1kYXNoYXJyYXk6MDt9I2dlTWVybWFpZE91dHB1dC0xNzQxOTIxMDUzNzEwIC5lZGdlLXRoaWNrbmVzcy1pbnZpc2libGV7c3Ryb2tlLXdpZHRoOjA7ZmlsbDpub25lO30jZ2VNZXJtYWlkT3V0cHV0LTE3NDE5MjEwNTM3MTAgLmVkZ2UtcGF0dGVybi1kYXNoZWR7c3Ryb2tlLWRhc2hhcnJheTozO30jZ2VNZXJtYWlkT3V0cHV0LTE3NDE5MjEwNTM3MTAgLmVkZ2UtcGF0dGVybi1kb3R0ZWR7c3Ryb2tlLWRhc2hhcnJheToyO30jZ2VNZXJtYWlkT3V0cHV0LTE3NDE5MjEwNTM3MTAgLm1hcmtlcntmaWxsOiM2NjY7c3Ryb2tlOiM2NjY7fSNnZU1lcm1haWRPdXRwdXQtMTc0MTkyMTA1MzcxMCAubWFya2VyLmNyb3Nze3N0cm9rZTojNjY2O30jZ2VNZXJtYWlkT3V0cHV0LTE3NDE5MjEwNTM3MTAgc3Zne2ZvbnQtZmFtaWx5OiJ0cmVidWNoZXQgbXMiLHZlcmRhbmEsYXJpYWwsc2Fucy1zZXJpZjtmb250LXNpemU6MTZweDt9I2dlTWVybWFpZE91dHB1dC0xNzQxOTIxMDUzNzEwIHB7bWFyZ2luOjA7fSNnZU1lcm1haWRPdXRwdXQtMTc0MTkyMTA1MzcxMCAubGFiZWx7Zm9udC1mYW1pbHk6InRyZWJ1Y2hldCBtcyIsdmVyZGFuYSxhcmlhbCxzYW5zLXNlcmlmO2NvbG9yOiMwMDAwMDA7fSNnZU1lcm1haWRPdXRwdXQtMTc0MTkyMTA1MzcxMCAuY2x1c3Rlci1sYWJlbCB0ZXh0e2ZpbGw6IzMzMzt9I2dlTWVybWFpZE91dHB1dC0xNzQxOTIxMDUzNzEwIC5jbHVzdGVyLWxhYmVsIHNwYW57Y29sb3I6IzMzMzt9I2dlTWVybWFpZE91dHB1dC0xNzQxOTIxMDUzNzEwIC5jbHVzdGVyLWxhYmVsIHNwYW4gcHtiYWNrZ3JvdW5kLWNvbG9yOnRyYW5zcGFyZW50O30jZ2VNZXJtYWlkT3V0cHV0LTE3NDE5MjEwNTM3MTAgLmxhYmVsIHRleHQsI2dlTWVybWFpZE91dHB1dC0xNzQxOTIxMDUzNzEwIHNwYW57ZmlsbDojMDAwMDAwO2NvbG9yOiMwMDAwMDA7fSNnZU1lcm1haWRPdXRwdXQtMTc0MTkyMTA1MzcxMCAubm9kZSByZWN0LCNnZU1lcm1haWRPdXRwdXQtMTc0MTkyMTA1MzcxMCAubm9kZSBjaXJjbGUsI2dlTWVybWFpZE91dHB1dC0xNzQxOTIxMDUzNzEwIC5ub2RlIGVsbGlwc2UsI2dlTWVybWFpZE91dHB1dC0xNzQxOTIxMDUzNzEwIC5ub2RlIHBvbHlnb24sI2dlTWVybWFpZE91dHB1dC0xNzQxOTIxMDUzNzEwIC5ub2RlIHBhdGh7ZmlsbDojZWVlO3N0cm9rZTojOTk5O3N0cm9rZS13aWR0aDoxcHg7fSNnZU1lcm1haWRPdXRwdXQtMTc0MTkyMTA1MzcxMCAucm91Z2gtbm9kZSAubGFiZWwgdGV4dCwjZ2VNZXJtYWlkT3V0cHV0LTE3NDE5MjEwNTM3MTAgLm5vZGUgLmxhYmVsIHRleHQsI2dlTWVybWFpZE91dHB1dC0xNzQxOTIxMDUzNzEwIC5pbWFnZS1zaGFwZSAubGFiZWwsI2dlTWVybWFpZE91dHB1dC0xNzQxOTIxMDUzNzEwIC5pY29uLXNoYXBlIC5sYWJlbHt0ZXh0LWFuY2hvcjptaWRkbGU7fSNnZU1lcm1haWRPdXRwdXQtMTc0MTkyMTA1MzcxMCAubm9kZSAua2F0ZXggcGF0aHtmaWxsOiMwMDA7c3Ryb2tlOiMwMDA7c3Ryb2tlLXdpZHRoOjFweDt9I2dlTWVybWFpZE91dHB1dC0xNzQxOTIxMDUzNzEwIC5yb3VnaC1ub2RlIC5sYWJlbCwjZ2VNZXJtYWlkT3V0cHV0LTE3NDE5MjEwNTM3MTAgLm5vZGUgLmxhYmVsLCNnZU1lcm1haWRPdXRwdXQtMTc0MTkyMTA1MzcxMCAuaW1hZ2Utc2hhcGUgLmxhYmVsLCNnZU1lcm1haWRPdXRwdXQtMTc0MTkyMTA1MzcxMCAuaWNvbi1zaGFwZSAubGFiZWx7dGV4dC1hbGlnbjpjZW50ZXI7fSNnZU1lcm1haWRPdXRwdXQtMTc0MTkyMTA1MzcxMCAubm9kZS5jbGlja2FibGV7Y3Vyc29yOnBvaW50ZXI7fSNnZU1lcm1haWRPdXRwdXQtMTc0MTkyMTA1MzcxMCAucm9vdCAuYW5jaG9yIHBhdGh7ZmlsbDojNjY2IWltcG9ydGFudDtzdHJva2Utd2lkdGg6MDtzdHJva2U6IzY2Njt9I2dlTWVybWFpZE91dHB1dC0xNzQxOTIxMDUzNzEwIC5hcnJvd2hlYWRQYXRoe2ZpbGw6IzMzMzMzMzt9I2dlTWVybWFpZE91dHB1dC0xNzQxOTIxMDUzNzEwIC5lZGdlUGF0aCAucGF0aHtzdHJva2U6IzY2NjtzdHJva2Utd2lkdGg6Mi4wcHg7fSNnZU1lcm1haWRPdXRwdXQtMTc0MTkyMTA1MzcxMCAuZmxvd2NoYXJ0LWxpbmt7c3Ryb2tlOiM2NjY7ZmlsbDpub25lO30jZ2VNZXJtYWlkT3V0cHV0LTE3NDE5MjEwNTM3MTAgLmVkZ2VMYWJlbHtiYWNrZ3JvdW5kLWNvbG9yOndoaXRlO3RleHQtYWxpZ246Y2VudGVyO30jZ2VNZXJtYWlkT3V0cHV0LTE3NDE5MjEwNTM3MTAgLmVkZ2VMYWJlbCBwe2JhY2tncm91bmQtY29sb3I6d2hpdGU7fSNnZU1lcm1haWRPdXRwdXQtMTc0MTkyMTA1MzcxMCAuZWRnZUxhYmVsIHJlY3R7b3BhY2l0eTowLjU7YmFja2dyb3VuZC1jb2xvcjp3aGl0ZTtmaWxsOndoaXRlO30jZ2VNZXJtYWlkT3V0cHV0LTE3NDE5MjEwNTM3MTAgLmxhYmVsQmtne2JhY2tncm91bmQtY29sb3I6cmdiYSgyNTUsIDI1NSwgMjU1LCAwLjUpO30jZ2VNZXJtYWlkT3V0cHV0LTE3NDE5MjEwNTM3MTAgLmNsdXN0ZXIgcmVjdHtmaWxsOmhzbCgwLCAwJSwgOTguOTIxNTY4NjI3NSUpO3N0cm9rZTojNzA3MDcwO3N0cm9rZS13aWR0aDoxcHg7fSNnZU1lcm1haWRPdXRwdXQtMTc0MTkyMTA1MzcxMCAuY2x1c3RlciB0ZXh0e2ZpbGw6IzMzMzt9I2dlTWVybWFpZE91dHB1dC0xNzQxOTIxMDUzNzEwIC5jbHVzdGVyIHNwYW57Y29sb3I6IzMzMzt9I2dlTWVybWFpZE91dHB1dC0xNzQxOTIxMDUzNzEwIGRpdi5tZXJtYWlkVG9vbHRpcHtwb3NpdGlvbjphYnNvbHV0ZTt0ZXh0LWFsaWduOmNlbnRlcjttYXgtd2lkdGg6MjAwcHg7cGFkZGluZzoycHg7Zm9udC1mYW1pbHk6InRyZWJ1Y2hldCBtcyIsdmVyZGFuYSxhcmlhbCxzYW5zLXNlcmlmO2ZvbnQtc2l6ZToxMnB4O2JhY2tncm91bmQ6aHNsKC0xNjAsIDAlLCA5My4zMzMzMzMzMzMzJSk7Ym9yZGVyOjFweCBzb2xpZCAjNzA3MDcwO2JvcmRlci1yYWRpdXM6MnB4O3BvaW50ZXItZXZlbnRzOm5vbmU7ei1pbmRleDoxMDA7fSNnZU1lcm1haWRPdXRwdXQtMTc0MTkyMTA1MzcxMCAuZmxvd2NoYXJ0VGl0bGVUZXh0e3RleHQtYW5jaG9yOm1pZGRsZTtmb250LXNpemU6MThweDtmaWxsOiMwMDAwMDA7fSNnZU1lcm1haWRPdXRwdXQtMTc0MTkyMTA1MzcxMCByZWN0LnRleHR7ZmlsbDpub25lO3N0cm9rZS13aWR0aDowO30jZ2VNZXJtYWlkT3V0cHV0LTE3NDE5MjEwNTM3MTAgLmljb24tc2hhcGUsI2dlTWVybWFpZE91dHB1dC0xNzQxOTIxMDUzNzEwIC5pbWFnZS1zaGFwZXtiYWNrZ3JvdW5kLWNvbG9yOndoaXRlO3RleHQtYWxpZ246Y2VudGVyO30jZ2VNZXJtYWlkT3V0cHV0LTE3NDE5MjEwNTM3MTAgLmljb24tc2hhcGUgcCwjZ2VNZXJtYWlkT3V0cHV0LTE3NDE5MjEwNTM3MTAgLmltYWdlLXNoYXBlIHB7YmFja2dyb3VuZC1jb2xvcjp3aGl0ZTtwYWRkaW5nOjJweDt9I2dlTWVybWFpZE91dHB1dC0xNzQxOTIxMDUzNzEwIC5pY29uLXNoYXBlIHJlY3QsI2dlTWVybWFpZE91dHB1dC0xNzQxOTIxMDUzNzEwIC5pbWFnZS1zaGFwZSByZWN0e29wYWNpdHk6MC41O2JhY2tncm91bmQtY29sb3I6d2hpdGU7ZmlsbDp3aGl0ZTt9I2dlTWVybWFpZE91dHB1dC0xNzQxOTIxMDUzNzEwIDpyb290ey0tbWVybWFpZC1mb250LWZhbWlseToidHJlYnVjaGV0IG1zIix2ZXJkYW5hLGFyaWFsLHNhbnMtc2VyaWY7fTwvc3R5bGU+PGc+PG1hcmtlciBvcmllbnQ9ImF1dG8iIG1hcmtlckhlaWdodD0iOCIgbWFya2VyV2lkdGg9IjgiIG1hcmtlclVuaXRzPSJ1c2VyU3BhY2VPblVzZSIgcmVmWT0iNSIgcmVmWD0iNSIgdmlld0JveD0iMCAwIDEwIDEwIiBjbGFzcz0ibWFya2VyIGZsb3djaGFydC12MiIgaWQ9ImdlTWVybWFpZE91dHB1dC0xNzQxOTIxMDUzNzEwX2Zsb3djaGFydC12Mi1wb2ludEVuZCI+PHBhdGggc3R5bGU9InN0cm9rZS13aWR0aDogMTsgc3Ryb2tlLWRhc2hhcnJheTogMSwgMDsiIGNsYXNzPSJhcnJvd01hcmtlclBhdGgiIGQ9Ik0gMCAwIEwgMTAgNSBMIDAgMTAgeiI+PC9wYXRoPjwvbWFya2VyPjxtYXJrZXIgb3JpZW50PSJhdXRvIiBtYXJrZXJIZWlnaHQ9IjgiIG1hcmtlcldpZHRoPSI4IiBtYXJrZXJVbml0cz0idXNlclNwYWNlT25Vc2UiIHJlZlk9IjUiIHJlZlg9IjQuNSIgdmlld0JveD0iMCAwIDEwIDEwIiBjbGFzcz0ibWFya2VyIGZsb3djaGFydC12MiIgaWQ9ImdlTWVybWFpZE91dHB1dC0xNzQxOTIxMDUzNzEwX2Zsb3djaGFydC12Mi1wb2ludFN0YXJ0Ij48cGF0aCBzdHlsZT0ic3Ryb2tlLXdpZHRoOiAxOyBzdHJva2UtZGFzaGFycmF5OiAxLCAwOyIgY2xhc3M9ImFycm93TWFya2VyUGF0aCIgZD0iTSAwIDUgTCAxMCAxMCBMIDEwIDAgeiI+PC9wYXRoPjwvbWFya2VyPjxtYXJrZXIgb3JpZW50PSJhdXRvIiBtYXJrZXJIZWlnaHQ9IjExIiBtYXJrZXJXaWR0aD0iMTEiIG1hcmtlclVuaXRzPSJ1c2VyU3BhY2VPblVzZSIgcmVmWT0iNSIgcmVmWD0iMTEiIHZpZXdCb3g9IjAgMCAxMCAxMCIgY2xhc3M9Im1hcmtlciBmbG93Y2hhcnQtdjIiIGlkPSJnZU1lcm1haWRPdXRwdXQtMTc0MTkyMTA1MzcxMF9mbG93Y2hhcnQtdjItY2lyY2xlRW5kIj48Y2lyY2xlIHN0eWxlPSJzdHJva2Utd2lkdGg6IDE7IHN0cm9rZS1kYXNoYXJyYXk6IDEsIDA7IiBjbGFzcz0iYXJyb3dNYXJrZXJQYXRoIiByPSI1IiBjeT0iNSIgY3g9IjUiPjwvY2lyY2xlPjwvbWFya2VyPjxtYXJrZXIgb3JpZW50PSJhdXRvIiBtYXJrZXJIZWlnaHQ9IjExIiBtYXJrZXJXaWR0aD0iMTEiIG1hcmtlclVuaXRzPSJ1c2VyU3BhY2VPblVzZSIgcmVmWT0iNSIgcmVmWD0iLTEiIHZpZXdCb3g9IjAgMCAxMCAxMCIgY2xhc3M9Im1hcmtlciBmbG93Y2hhcnQtdjIiIGlkPSJnZU1lcm1haWRPdXRwdXQtMTc0MTkyMTA1MzcxMF9mbG93Y2hhcnQtdjItY2lyY2xlU3RhcnQiPjxjaXJjbGUgc3R5bGU9InN0cm9rZS13aWR0aDogMTsgc3Ryb2tlLWRhc2hhcnJheTogMSwgMDsiIGNsYXNzPSJhcnJvd01hcmtlclBhdGgiIHI9IjUiIGN5PSI1IiBjeD0iNSI+PC9jaXJjbGU+PC9tYXJrZXI+PG1hcmtlciBvcmllbnQ9ImF1dG8iIG1hcmtlckhlaWdodD0iMTEiIG1hcmtlcldpZHRoPSIxMSIgbWFya2VyVW5pdHM9InVzZXJTcGFjZU9uVXNlIiByZWZZPSI1LjIiIHJlZlg9IjEyIiB2aWV3Qm94PSIwIDAgMTEgMTEiIGNsYXNzPSJtYXJrZXIgY3Jvc3MgZmxvd2NoYXJ0LXYyIiBpZD0iZ2VNZXJtYWlkT3V0cHV0LTE3NDE5MjEwNTM3MTBfZmxvd2NoYXJ0LXYyLWNyb3NzRW5kIj48cGF0aCBzdHlsZT0ic3Ryb2tlLXdpZHRoOiAyOyBzdHJva2UtZGFzaGFycmF5OiAxLCAwOyIgY2xhc3M9ImFycm93TWFya2VyUGF0aCIgZD0iTSAxLDEgbCA5LDkgTSAxMCwxIGwgLTksOSI+PC9wYXRoPjwvbWFya2VyPjxtYXJrZXIgb3JpZW50PSJhdXRvIiBtYXJrZXJIZWlnaHQ9IjExIiBtYXJrZXJXaWR0aD0iMTEiIG1hcmtlclVuaXRzPSJ1c2VyU3BhY2VPblVzZSIgcmVmWT0iNS4yIiByZWZYPSItMSIgdmlld0JveD0iMCAwIDExIDExIiBjbGFzcz0ibWFya2VyIGNyb3NzIGZsb3djaGFydC12MiIgaWQ9ImdlTWVybWFpZE91dHB1dC0xNzQxOTIxMDUzNzEwX2Zsb3djaGFydC12Mi1jcm9zc1N0YXJ0Ij48cGF0aCBzdHlsZT0ic3Ryb2tlLXdpZHRoOiAyOyBzdHJva2UtZGFzaGFycmF5OiAxLCAwOyIgY2xhc3M9ImFycm93TWFya2VyUGF0aCIgZD0iTSAxLDEgbCA5LDkgTSAxMCwxIGwgLTksOSI+PC9wYXRoPjwvbWFya2VyPjxnIGNsYXNzPSJyb290Ij48ZyBjbGFzcz0iY2x1c3RlcnMiPjwvZz48ZyBjbGFzcz0iZWRnZVBhdGhzIj48cGF0aCBtYXJrZXItZW5kPSJ1cmwoI2dlTWVybWFpZE91dHB1dC0xNzQxOTIxMDUzNzEwX2Zsb3djaGFydC12Mi1wb2ludEVuZCkiIHN0eWxlPSIiIGNsYXNzPSJlZGdlLXRoaWNrbmVzcy1ub3JtYWwgZWRnZS1wYXR0ZXJuLXNvbGlkIGVkZ2UtdGhpY2tuZXNzLW5vcm1hbCBlZGdlLXBhdHRlcm4tc29saWQgZmxvd2NoYXJ0LWxpbmsiIGlkPSJMX0FfQl8wIiBkPSJNMjgzLjI1Miw2MkwyODMuMjUyLDY2LjE2N0MyODMuMjUyLDcwLjMzMywyODMuMjUyLDc4LjY2NywyODMuMjUyLDg2LjMzM0MyODMuMjUyLDk0LDI4My4yNTIsMTAxLDI4My4yNTIsMTA0LjVMMjgzLjI1MiwxMDgiPjwvcGF0aD48cGF0aCBtYXJrZXItZW5kPSJ1cmwoI2dlTWVybWFpZE91dHB1dC0xNzQxOTIxMDUzNzEwX2Zsb3djaGFydC12Mi1wb2ludEVuZCkiIHN0eWxlPSIiIGNsYXNzPSJlZGdlLXRoaWNrbmVzcy1ub3JtYWwgZWRnZS1wYXR0ZXJuLXNvbGlkIGVkZ2UtdGhpY2tuZXNzLW5vcm1hbCBlZGdlLXBhdHRlcm4tc29saWQgZmxvd2NoYXJ0LWxpbmsiIGlkPSJMX0JfQ18xIiBkPSJNMjgzLjI1MiwxNjZMMjgzLjI1MiwxNzAuMTY3QzI4My4yNTIsMTc0LjMzMywyODMuMjUyLDE4Mi42NjcsMjgzLjMyMywxOTAuNDE3QzI4My4zOTMsMTk4LjE2NywyODMuNTMzLDIwNS4zMzQsMjgzLjYwNCwyMDguOTE3TDI4My42NzQsMjEyLjUwMSI+PC9wYXRoPjxwYXRoIG1hcmtlci1lbmQ9InVybCgjZ2VNZXJtYWlkT3V0cHV0LTE3NDE5MjEwNTM3MTBfZmxvd2NoYXJ0LXYyLXBvaW50RW5kKSIgc3R5bGU9IiIgY2xhc3M9ImVkZ2UtdGhpY2tuZXNzLW5vcm1hbCBlZGdlLXBhdHRlcm4tc29saWQgZWRnZS10aGlja25lc3Mtbm9ybWFsIGVkZ2UtcGF0dGVybi1zb2xpZCBmbG93Y2hhcnQtbGluayIgaWQ9IkxfQ19EXzIiIGQ9Ik0yNDQuMjMyLDMxMi43OTZMMjI2LjUyNiwzMjUuMzcxQzIwOC44MiwzMzcuOTQ2LDE3My40MDksMzYzLjA5NiwxNTUuNzAzLDM4MS4wNzVDMTM3Ljk5OCwzOTkuMDU1LDEzNy45OTgsNDA5Ljg2NSwxMzcuOTk4LDQxNS4yNjlMMTM3Ljk5OCw0MjAuNjc0Ij48L3BhdGg+PHBhdGggbWFya2VyLWVuZD0idXJsKCNnZU1lcm1haWRPdXRwdXQtMTc0MTkyMTA1MzcxMF9mbG93Y2hhcnQtdjItcG9pbnRFbmQpIiBzdHlsZT0iIiBjbGFzcz0iZWRnZS10aGlja25lc3Mtbm9ybWFsIGVkZ2UtcGF0dGVybi1zb2xpZCBlZGdlLXRoaWNrbmVzcy1ub3JtYWwgZWRnZS1wYXR0ZXJuLXNvbGlkIGZsb3djaGFydC1saW5rIiBpZD0iTF9DX0VfMyIgZD0iTTMyMy4yNzMsMzEyLjc5NkwzNDAuODEyLDMyNS4zNzFDMzU4LjM1MSwzMzcuOTQ2LDM5My40MjksMzYzLjA5Niw0MTAuOTY4LDM4MS4wNzVDNDI4LjUwNywzOTkuMDU1LDQyOC41MDcsNDA5Ljg2NSw0MjguNTA3LDQxNS4yNjlMNDI4LjUwNyw0MjAuNjc0Ij48L3BhdGg+PHBhdGggbWFya2VyLWVuZD0idXJsKCNnZU1lcm1haWRPdXRwdXQtMTc0MTkyMTA1MzcxMF9mbG93Y2hhcnQtdjItcG9pbnRFbmQpIiBzdHlsZT0iIiBjbGFzcz0iZWRnZS10aGlja25lc3Mtbm9ybWFsIGVkZ2UtcGF0dGVybi1zb2xpZCBlZGdlLXRoaWNrbmVzcy1ub3JtYWwgZWRnZS1wYXR0ZXJuLXNvbGlkIGZsb3djaGFydC1saW5rIiBpZD0iTF9FX0ZfNCIgZD0iTTQyOC41MDcsNDc4LjY3NEw0MjguNTA3LDQ4Mi44NDFDNDI4LjUwNyw0ODcuMDA3LDQyOC41MDcsNDk1LjM0MSw0MjguNTA3LDUwMy4wMDdDNDI4LjUwNyw1MTAuNjc0LDQyOC41MDcsNTE3LjY3NCw0MjguNTA3LDUyMS4xNzRMNDI4LjUwNyw1MjQuNjc0Ij48L3BhdGg+PHBhdGggbWFya2VyLWVuZD0idXJsKCNnZU1lcm1haWRPdXRwdXQtMTc0MTkyMTA1MzcxMF9mbG93Y2hhcnQtdjItcG9pbnRFbmQpIiBzdHlsZT0iIiBjbGFzcz0iZWRnZS10aGlja25lc3Mtbm9ybWFsIGVkZ2UtcGF0dGVybi1zb2xpZCBlZGdlLXRoaWNrbmVzcy1ub3JtYWwgZWRnZS1wYXR0ZXJuLXNvbGlkIGZsb3djaGFydC1saW5rIiBpZD0iTF9GX0dfNSIgZD0iTTQyOC41MDcsNTgyLjY3NEw0MjguNTA3LDU4Ni44NDFDNDI4LjUwNyw1OTEuMDA3LDQyOC41MDcsNTk5LjM0MSw0MjguNTA3LDYwNy4wMDdDNDI4LjUwNyw2MTQuNjc0LDQyOC41MDcsNjIxLjY3NCw0MjguNTA3LDYyNS4xNzRMNDI4LjUwNyw2MjguNjc0Ij48L3BhdGg+PHBhdGggbWFya2VyLWVuZD0idXJsKCNnZU1lcm1haWRPdXRwdXQtMTc0MTkyMTA1MzcxMF9mbG93Y2hhcnQtdjItcG9pbnRFbmQpIiBzdHlsZT0iIiBjbGFzcz0iZWRnZS10aGlja25lc3Mtbm9ybWFsIGVkZ2UtcGF0dGVybi1zb2xpZCBlZGdlLXRoaWNrbmVzcy1ub3JtYWwgZWRnZS1wYXR0ZXJuLXNvbGlkIGZsb3djaGFydC1saW5rIiBpZD0iTF9HX0hfNiIgZD0iTTQyOC41MDcsNjg2LjY3NEw0MjguNTA3LDY5MC44NDFDNDI4LjUwNyw2OTUuMDA3LDQyOC41MDcsNzAzLjM0MSw0MjguNTA3LDcxMS4wMDdDNDI4LjUwNyw3MTguNjc0LDQyOC41MDcsNzI1LjY3NCw0MjguNTA3LDcyOS4xNzRMNDI4LjUwNyw3MzIuNjc0Ij48L3BhdGg+PHBhdGggbWFya2VyLWVuZD0idXJsKCNnZU1lcm1haWRPdXRwdXQtMTc0MTkyMTA1MzcxMF9mbG93Y2hhcnQtdjItcG9pbnRFbmQpIiBzdHlsZT0iIiBjbGFzcz0iZWRnZS10aGlja25lc3Mtbm9ybWFsIGVkZ2UtcGF0dGVybi1zb2xpZCBlZGdlLXRoaWNrbmVzcy1ub3JtYWwgZWRnZS1wYXR0ZXJuLXNvbGlkIGZsb3djaGFydC1saW5rIiBpZD0iTF9IX0lfNyIgZD0iTTQyOC41MDcsNzkwLjY3NEw0MjguNTA3LDc5NC44NDFDNDI4LjUwNyw3OTkuMDA3LDQyOC41MDcsODA3LjM0MSw0MjguNTA3LDgxNS4wMDdDNDI4LjUwNyw4MjIuNjc0LDQyOC41MDcsODI5LjY3NCw0MjguNTA3LDgzMy4xNzRMNDI4LjUwNyw4MzYuNjc0Ij48L3BhdGg+PHBhdGggbWFya2VyLWVuZD0idXJsKCNnZU1lcm1haWRPdXRwdXQtMTc0MTkyMTA1MzcxMF9mbG93Y2hhcnQtdjItcG9pbnRFbmQpIiBzdHlsZT0iIiBjbGFzcz0iZWRnZS10aGlja25lc3Mtbm9ybWFsIGVkZ2UtcGF0dGVybi1zb2xpZCBlZGdlLXRoaWNrbmVzcy1ub3JtYWwgZWRnZS1wYXR0ZXJuLXNvbGlkIGZsb3djaGFydC1saW5rIiBpZD0iTF9JX0pfOCIgZD0iTTQyOC41MDcsODk0LjY3NEw0MjguNTA3LDg5OC44NDFDNDI4LjUwNyw5MDMuMDA3LDQyOC41MDcsOTExLjM0MSw0MjguNTA3LDkxOS4wMDdDNDI4LjUwNyw5MjYuNjc0LDQyOC41MDcsOTMzLjY3NCw0MjguNTA3LDkzNy4xNzRMNDI4LjUwNyw5NDAuNjc0Ij48L3BhdGg+PHBhdGggbWFya2VyLWVuZD0idXJsKCNnZU1lcm1haWRPdXRwdXQtMTc0MTkyMTA1MzcxMF9mbG93Y2hhcnQtdjItcG9pbnRFbmQpIiBzdHlsZT0iIiBjbGFzcz0iZWRnZS10aGlja25lc3Mtbm9ybWFsIGVkZ2UtcGF0dGVybi1zb2xpZCBlZGdlLXRoaWNrbmVzcy1ub3JtYWwgZWRnZS1wYXR0ZXJuLXNvbGlkIGZsb3djaGFydC1saW5rIiBpZD0iTF9KX0tfOSIgZD0iTTQyOC41MDcsOTk4LjY3NEw0MjguNTA3LDEwMDIuODQxQzQyOC41MDcsMTAwNy4wMDcsNDI4LjUwNywxMDE1LjM0MSw0MjguNTc3LDEwMjMuMDkxQzQyOC42NDcsMTAzMC44NDEsNDI4Ljc4OCwxMDM4LjAwOCw0MjguODU4LDEwNDEuNTkxTDQyOC45MjgsMTA0NS4xNzUiPjwvcGF0aD48cGF0aCBtYXJrZXItZW5kPSJ1cmwoI2dlTWVybWFpZE91dHB1dC0xNzQxOTIxMDUzNzEwX2Zsb3djaGFydC12Mi1wb2ludEVuZCkiIHN0eWxlPSIiIGNsYXNzPSJlZGdlLXRoaWNrbmVzcy1ub3JtYWwgZWRnZS1wYXR0ZXJuLXNvbGlkIGVkZ2UtdGhpY2tuZXNzLW5vcm1hbCBlZGdlLXBhdHRlcm4tc29saWQgZmxvd2NoYXJ0LWxpbmsiIGlkPSJMX0tfQUVfMTAiIGQ9Ik0zNTMuNTgzLDExNzYuNTA0TDI5OS4zMjIsMTE5NS4wNjNDMjQ1LjA2MSwxMjEzLjYyMiwxMzYuNTQsMTI1MC43NCw4Mi4yOCwxMjc5Ljg3QzI4LjAxOSwxMzA5LDI4LjAxOSwxMzMwLjE0MywyOC4wMTksMTM0OS4zODFDMjguMDE5LDEzNjguNjE5LDI4LjAxOSwxMzg1Ljk1MiwyOC4wMTksMTQwMy4yODZDMjguMDE5LDE0MjAuNjE5LDI4LjAxOSwxNDM3Ljk1MiwyOC4wMTksMTQ1NS4yODZDMjguMDE5LDE0NzIuNjE5LDI4LjAxOSwxNDg5Ljk1MiwyOC4wMTksMTUwNy4yODZDMjguMDE5LDE1MjQuNjE5LDI4LjAxOSwxNTQxLjk1MiwyOC4wMTksMTU1OS4yODZDMjguMDE5LDE1NzYuNjE5LDI4LjAxOSwxNTkzLjk1MiwyOC4wMTksMTYxMS4yODZDMjguMDE5LDE2MjguNjE5LDI4LjAxOSwxNjQ1Ljk1MiwyOC4wMTksMTY2My4yODZDMjguMDE5LDE2ODAuNjE5LDI4LjAxOSwxNjk3Ljk1MiwyOC4wMTksMTczMS45NTJDMjguMDE5LDE3NjUuOTUyLDI4LjAxOSwxODE2LjYxOCwyOC4wMTksMTg2OS4xODhDMjguMDE5LDE5MjEuNzU5LDI4LjAxOSwxOTc2LjIzNCwyOC4wMTksMjAxNC4wNDRDMjguMDE5LDIwNTEuODUzLDI4LjAxOSwyMDcyLjk5NiwyOC4wMTksMjA5Mi4yMzRDMjguMDE5LDIxMTEuNDcyLDI4LjAxOSwyMTI4LjgwNSwyOC4wMTksMjE0Ni4xMzhDMjguMDE5LDIxNjMuNDcyLDI4LjAxOSwyMTgwLjgwNSwyOC4wMTksMjE5OC4xMzhDMjguMDE5LDIyMTUuNDcyLDI4LjAxOSwyMjMyLjgwNSwyOC4wMTksMjI2MC43NDFDMjguMDE5LDIyODguNjc3LDI4LjAxOSwyMzI3LjIxNiwyOC4wMTksMjM2Ny42NTlDMjguMDE5LDI0MDguMTAzLDI4LjAxOSwyNDUwLjQ1MSwyOC4wMTksMjQ4Mi4xOTZDMjguMDE5LDI1MTMuOTQyLDI4LjAxOSwyNTM1LjA4NSwyOC4wMTksMjU1NC4zMjNDMjguMDE5LDI1NzMuNTYxLDI4LjAxOSwyNTkwLjg5NCwyOC4wMTksMjYxOC44M0MyOC4wMTksMjY0Ni43NjYsMjguMDE5LDI2ODUuMzA1LDI4LjAxOSwyNzI1Ljc0OUMyOC4wMTksMjc2Ni4xOTIsMjguMDE5LDI4MDguNTQsMjguMDE5LDI4NDAuMjg2QzI4LjAxOSwyODcyLjAzMSwyOC4wMTksMjg5My4xNzQsMjguMDE5LDI5MTQuMzE3QzI4LjAxOSwyOTM1LjQ2LDI4LjAxOSwyOTU2LjYwMywyOC4wMTksMjk3Ny43NDZDMjguMDE5LDI5OTguODg4LDI4LjAxOSwzMDIwLjAzMSwyOC4wMTksMzAzOS4yNjlDMjguMDE5LDMwNTguNTA3LDI4LjAxOSwzMDc1Ljg0MSwyOC4wMTksMzA5My4xNzRDMjguMDE5LDMxMTAuNTA3LDI4LjAxOSwzMTI3Ljg0MSwyOC4wMTksMzE0NS4xNzRDMjguMDE5LDMxNjIuNTA3LDI4LjAxOSwzMTc5Ljg0MSwyOC4wMTksMzIxMy44NEMyOC4wMTksMzI0Ny44NCwyOC4wMTksMzI5OC41MDYsMjguMDE5LDMzNTEuMDc3QzI4LjAxOSwzNDAzLjY0NywyOC4wMTksMzQ1OC4xMjMsMjguMDE5LDM1MTIuNTk4QzI4LjAxOSwzNTY3LjA3NCwyOC4wMTksMzYyMS41NDksMjguMDE5LDM2NzQuMTJDMjguMDE5LDM3MjYuNjkxLDI4LjAxOSwzNzc3LjM1NiwyOC4wMTksMzgxMS4zNTZDMjguMDE5LDM4NDUuMzU2LDI4LjAxOSwzODYyLjY4OSwyOC4wMTksMzg4MC4wMjJDMjguMDE5LDM4OTcuMzU2LDI4LjAxOSwzOTE0LjY4OSwyOC4wMTksMzk0OC42ODlDMjguMDE5LDM5ODIuNjg4LDI4LjAxOSw0MDMzLjM1NCwyOC4wMTksNDA4NS45MjVDMjguMDE5LDQxMzguNDk2LDI4LjAxOSw0MTkyLjk3MSw3Mi40NDIsNDIyNy4yNDRDMTE2Ljg2NSw0MjYxLjUxOCwyMDUuNzEyLDQyNzUuNTg5LDI1MC4xMzUsNDI4Mi42MjVMMjk0LjU1OCw0Mjg5LjY2MSI+PC9wYXRoPjxwYXRoIG1hcmtlci1lbmQ9InVybCgjZ2VNZXJtYWlkT3V0cHV0LTE3NDE5MjEwNTM3MTBfZmxvd2NoYXJ0LXYyLXBvaW50RW5kKSIgc3R5bGU9IiIgY2xhc3M9ImVkZ2UtdGhpY2tuZXNzLW5vcm1hbCBlZGdlLXBhdHRlcm4tc29saWQgZWRnZS10aGlja25lc3Mtbm9ybWFsIGVkZ2UtcGF0dGVybi1zb2xpZCBmbG93Y2hhcnQtbGluayIgaWQ9IkxfS19MXzExIiBkPSJNNDY2Ljk3LDEyMTMuOTY1TDQ3NC4zMDksMTIyNi4yODFDNDgxLjY0OSwxMjM4LjU5Niw0OTYuMzI3LDEyNjMuMjI2LDUwMy42NjYsMTI4MC45NDdDNTExLjAwNiwxMjk4LjY2Nyw1MTEuMDA2LDEzMDkuNDc2LDUxMS4wMDYsMTMxNC44ODFMNTExLjAwNiwxMzIwLjI4NiI+PC9wYXRoPjxwYXRoIG1hcmtlci1lbmQ9InVybCgjZ2VNZXJtYWlkT3V0cHV0LTE3NDE5MjEwNTM3MTBfZmxvd2NoYXJ0LXYyLXBvaW50RW5kKSIgc3R5bGU9IiIgY2xhc3M9ImVkZ2UtdGhpY2tuZXNzLW5vcm1hbCBlZGdlLXBhdHRlcm4tc29saWQgZWRnZS10aGlja25lc3Mtbm9ybWFsIGVkZ2UtcGF0dGVybi1zb2xpZCBmbG93Y2hhcnQtbGluayIgaWQ9IkxfTF9NXzEyIiBkPSJNNTExLjAwNiwxMzc4LjI4Nkw1MTEuMDA2LDEzODIuNDUyQzUxMS4wMDYsMTM4Ni42MTksNTExLjAwNiwxMzk0Ljk1Miw1MTEuMDA2LDE0MDIuNjE5QzUxMS4wMDYsMTQxMC4yODYsNTExLjAwNiwxNDE3LjI4Niw1MTEuMDA2LDE0MjAuNzg2TDUxMS4wMDYsMTQyNC4yODYiPjwvcGF0aD48cGF0aCBtYXJrZXItZW5kPSJ1cmwoI2dlTWVybWFpZE91dHB1dC0xNzQxOTIxMDUzNzEwX2Zsb3djaGFydC12Mi1wb2ludEVuZCkiIHN0eWxlPSIiIGNsYXNzPSJlZGdlLXRoaWNrbmVzcy1ub3JtYWwgZWRnZS1wYXR0ZXJuLXNvbGlkIGVkZ2UtdGhpY2tuZXNzLW5vcm1hbCBlZGdlLXBhdHRlcm4tc29saWQgZmxvd2NoYXJ0LWxpbmsiIGlkPSJMX01fTl8xMyIgZD0iTTUxMS4wMDYsMTQ4Mi4yODZMNTExLjAwNiwxNDg2LjQ1MkM1MTEuMDA2LDE0OTAuNjE5LDUxMS4wMDYsMTQ5OC45NTIsNTExLjAwNiwxNTA2LjYxOUM1MTEuMDA2LDE1MTQuMjg2LDUxMS4wMDYsMTUyMS4yODYsNTExLjAwNiwxNTI0Ljc4Nkw1MTEuMDA2LDE1MjguMjg2Ij48L3BhdGg+PHBhdGggbWFya2VyLWVuZD0idXJsKCNnZU1lcm1haWRPdXRwdXQtMTc0MTkyMTA1MzcxMF9mbG93Y2hhcnQtdjItcG9pbnRFbmQpIiBzdHlsZT0iIiBjbGFzcz0iZWRnZS10aGlja25lc3Mtbm9ybWFsIGVkZ2UtcGF0dGVybi1zb2xpZCBlZGdlLXRoaWNrbmVzcy1ub3JtYWwgZWRnZS1wYXR0ZXJuLXNvbGlkIGZsb3djaGFydC1saW5rIiBpZD0iTF9OX09fMTQiIGQ9Ik00NjguMTcsMTU4Ni4yODZMNDYxLjU1OSwxNTkwLjQ1MkM0NTQuOTQ5LDE1OTQuNjE5LDQ0MS43MjgsMTYwMi45NTIsNDM1LjExNywxNjEwLjYxOUM0MjguNTA3LDE2MTguMjg2LDQyOC41MDcsMTYyNS4yODYsNDI4LjUwNywxNjI4Ljc4Nkw0MjguNTA3LDE2MzIuMjg2Ij48L3BhdGg+PHBhdGggbWFya2VyLWVuZD0idXJsKCNnZU1lcm1haWRPdXRwdXQtMTc0MTkyMTA1MzcxMF9mbG93Y2hhcnQtdjItcG9pbnRFbmQpIiBzdHlsZT0iIiBjbGFzcz0iZWRnZS10aGlja25lc3Mtbm9ybWFsIGVkZ2UtcGF0dGVybi1zb2xpZCBlZGdlLXRoaWNrbmVzcy1ub3JtYWwgZWRnZS1wYXR0ZXJuLXNvbGlkIGZsb3djaGFydC1saW5rIiBpZD0iTF9PX1BfMTUiIGQ9Ik00MjguNTA3LDE2OTAuMjg2TDQyOC41MDcsMTY5NC40NTJDNDI4LjUwNywxNjk4LjYxOSw0MjguNTA3LDE3MDYuOTUyLDQyOC41NzcsMTcxNC43MDNDNDI4LjY0NywxNzIyLjQ1Myw0MjguNzg4LDE3MjkuNjIsNDI4Ljg1OCwxNzMzLjIwM0w0MjguOTI4LDE3MzYuNzg2Ij48L3BhdGg+PHBhdGggbWFya2VyLWVuZD0idXJsKCNnZU1lcm1haWRPdXRwdXQtMTc0MTkyMTA1MzcxMF9mbG93Y2hhcnQtdjItcG9pbnRFbmQpIiBzdHlsZT0iIiBjbGFzcz0iZWRnZS10aGlja25lc3Mtbm9ybWFsIGVkZ2UtcGF0dGVybi1zb2xpZCBlZGdlLXRoaWNrbmVzcy1ub3JtYWwgZWRnZS1wYXR0ZXJuLXNvbGlkIGZsb3djaGFydC1saW5rIiBpZD0iTF9QX1FfMTYiIGQ9Ik0zNTkuMzcxLDE5MjUuMTQ1TDMzNy44MjcsMTk0Mi43MzlDMzE2LjI4MywxOTYwLjMzMywyNzMuMTk2LDE5OTUuNTIyLDI1MS42NTMsMjAxOC41MkMyMzAuMTA5LDIwNDEuNTE5LDIzMC4xMDksMjA1Mi4zMjksMjMwLjEwOSwyMDU3LjczNEwyMzAuMTA5LDIwNjMuMTM4Ij48L3BhdGg+PHBhdGggbWFya2VyLWVuZD0idXJsKCNnZU1lcm1haWRPdXRwdXQtMTc0MTkyMTA1MzcxMF9mbG93Y2hhcnQtdjItcG9pbnRFbmQpIiBzdHlsZT0iIiBjbGFzcz0iZWRnZS10aGlja25lc3Mtbm9ybWFsIGVkZ2UtcGF0dGVybi1zb2xpZCBlZGdlLXRoaWNrbmVzcy1ub3JtYWwgZWRnZS1wYXR0ZXJuLXNvbGlkIGZsb3djaGFydC1saW5rIiBpZD0iTF9RX1JfMTciIGQ9Ik0zNTYuMzgzLDIxMjEuMTM4TDM3NS44NywyMTI1LjMwNUMzOTUuMzU3LDIxMjkuNDcyLDQzNC4zMywyMTM3LjgwNSw0NjkuMDY5LDIxNDUuOTY5QzUwMy44MDgsMjE1NC4xMzQsNTM0LjMxMywyMTYyLjEyOSw1NDkuNTY1LDIxNjYuMTI3TDU2NC44MTgsMjE3MC4xMjQiPjwvcGF0aD48cGF0aCBtYXJrZXItZW5kPSJ1cmwoI2dlTWVybWFpZE91dHB1dC0xNzQxOTIxMDUzNzEwX2Zsb3djaGFydC12Mi1wb2ludEVuZCkiIHN0eWxlPSIiIGNsYXNzPSJlZGdlLXRoaWNrbmVzcy1ub3JtYWwgZWRnZS1wYXR0ZXJuLXNvbGlkIGVkZ2UtdGhpY2tuZXNzLW5vcm1hbCBlZGdlLXBhdHRlcm4tc29saWQgZmxvd2NoYXJ0LWxpbmsiIGlkPSJMX1BfUl8xOCIgZD0iTTUyMi44OTksMTkwMC44ODlMNTg0LjQxNSwxOTIyLjUyNkM2NDUuOTMyLDE5NDQuMTYzLDc2OC45NjYsMTk4Ny40MzYsODMwLjQ4MywyMDE5LjY0NUM4OTIsMjA1MS44NTMsODkyLDIwNzIuOTk2LDg5MiwyMDkyLjIzNEM4OTIsMjExMS40NzIsODkyLDIxMjguODA1LDg3NC45OTcsMjE0MS40ODVDODU3Ljk5MywyMTU0LjE2NSw4MjMuOTg3LDIxNjIuMTkyLDgwNi45ODMsMjE2Ni4yMDZMNzg5Ljk4LDIxNzAuMjE5Ij48L3BhdGg+PHBhdGggbWFya2VyLWVuZD0idXJsKCNnZU1lcm1haWRPdXRwdXQtMTc0MTkyMTA1MzcxMF9mbG93Y2hhcnQtdjItcG9pbnRFbmQpIiBzdHlsZT0iIiBjbGFzcz0iZWRnZS10aGlja25lc3Mtbm9ybWFsIGVkZ2UtcGF0dGVybi1zb2xpZCBlZGdlLXRoaWNrbmVzcy1ub3JtYWwgZWRnZS1wYXR0ZXJuLXNvbGlkIGZsb3djaGFydC1saW5rIiBpZD0iTF9SX1NfMTkiIGQ9Ik02NzEuNzAxLDIyMjUuMTM4TDY3MS43MDEsMjIyOS4zMDVDNjcxLjcwMSwyMjMzLjQ3Miw2NzEuNzAxLDIyNDEuODA1LDY3MS43MDEsMjI2MC4wNzRDNjcxLjcwMSwyMjc4LjM0NCw2NzEuNzAxLDIzMDYuNTQ5LDY3MS43MDEsMjMyMC42NTJMNjcxLjcwMSwyMzM0Ljc1NCI+PC9wYXRoPjxwYXRoIG1hcmtlci1lbmQ9InVybCgjZ2VNZXJtYWlkT3V0cHV0LTE3NDE5MjEwNTM3MTBfZmxvd2NoYXJ0LXYyLXBvaW50RW5kKSIgc3R5bGU9IiIgY2xhc3M9ImVkZ2UtdGhpY2tuZXNzLW5vcm1hbCBlZGdlLXBhdHRlcm4tc29saWQgZWRnZS10aGlja25lc3Mtbm9ybWFsIGVkZ2UtcGF0dGVybi1zb2xpZCBmbG93Y2hhcnQtbGluayIgaWQ9IkxfU19UXzIwIiBkPSJNNjcxLjcwMSwyMzkyLjc1NEw2NzEuNzAxLDI0MDkuNDI5QzY3MS43MDEsMjQyNi4xMDMsNjcxLjcwMSwyNDU5LjQ1MSw2NzEuNzAxLDI0ODEuNTNDNjcxLjcwMSwyNTAzLjYwOSw2NzEuNzAxLDI1MTQuNDE4LDY3MS43MDEsMjUxOS44MjNMNjcxLjcwMSwyNTI1LjIyOCI+PC9wYXRoPjxwYXRoIG1hcmtlci1lbmQ9InVybCgjZ2VNZXJtYWlkT3V0cHV0LTE3NDE5MjEwNTM3MTBfZmxvd2NoYXJ0LXYyLXBvaW50RW5kKSIgc3R5bGU9IiIgY2xhc3M9ImVkZ2UtdGhpY2tuZXNzLW5vcm1hbCBlZGdlLXBhdHRlcm4tc29saWQgZWRnZS10aGlja25lc3Mtbm9ybWFsIGVkZ2UtcGF0dGVybi1zb2xpZCBmbG93Y2hhcnQtbGluayIgaWQ9IkxfVF9VXzIxIiBkPSJNNjcxLjcwMSwyNTgzLjIyOEw2NzEuNzAxLDI1ODcuMzk0QzY3MS43MDEsMjU5MS41NjEsNjcxLjcwMSwyNTk5Ljg5NCw2NzEuNzcxLDI2MDcuNjQ0QzY3MS44NDEsMjYxNS4zOTUsNjcxLjk4MiwyNjIyLjU2Miw2NzIuMDUyLDI2MjYuMTQ1TDY3Mi4xMjIsMjYyOS43MjgiPjwvcGF0aD48cGF0aCBtYXJrZXItZW5kPSJ1cmwoI2dlTWVybWFpZE91dHB1dC0xNzQxOTIxMDUzNzEwX2Zsb3djaGFydC12Mi1wb2ludEVuZCkiIHN0eWxlPSIiIGNsYXNzPSJlZGdlLXRoaWNrbmVzcy1ub3JtYWwgZWRnZS1wYXR0ZXJuLXNvbGlkIGVkZ2UtdGhpY2tuZXNzLW5vcm1hbCBlZGdlLXBhdHRlcm4tc29saWQgZmxvd2NoYXJ0LWxpbmsiIGlkPSJMX1VfVl8yMiIgZD0iTTYzNi41MjUsMjc3OS4yODRMNjI4LjYzOCwyNzkxLjIxOEM2MjAuNzUsMjgwMy4xNTIsNjA0Ljk3NiwyODI3LjAyLDU5Ny4wODksMjg0NC4zNTlDNTg5LjIwMiwyODYxLjY5OCw1ODkuMjAyLDI4NzIuNTA3LDU4OS4yMDIsMjg3Ny45MTJMNTg5LjIwMiwyODgzLjMxNyI+PC9wYXRoPjxwYXRoIG1hcmtlci1lbmQ9InVybCgjZ2VNZXJtYWlkT3V0cHV0LTE3NDE5MjEwNTM3MTBfZmxvd2NoYXJ0LXYyLXBvaW50RW5kKSIgc3R5bGU9IiIgY2xhc3M9ImVkZ2UtdGhpY2tuZXNzLW5vcm1hbCBlZGdlLXBhdHRlcm4tc29saWQgZWRnZS10aGlja25lc3Mtbm9ybWFsIGVkZ2UtcGF0dGVybi1zb2xpZCBmbG93Y2hhcnQtbGluayIgaWQ9IkxfVl9XXzIzIiBkPSJNNTg5LjIwMiwyOTQxLjMxN0w1ODkuMjAyLDI5NDcuMzg4QzU4OS4yMDIsMjk1My40Niw1ODkuMjAyLDI5NjUuNjAzLDU4OS4yMDIsMjk3Ny4wNzlDNTg5LjIwMiwyOTg4LjU1NSw1ODkuMjAyLDI5OTkuMzY1LDU4OS4yMDIsMzAwNC43NjlMNTg5LjIwMiwzMDEwLjE3NCI+PC9wYXRoPjxwYXRoIG1hcmtlci1lbmQ9InVybCgjZ2VNZXJtYWlkT3V0cHV0LTE3NDE5MjEwNTM3MTBfZmxvd2NoYXJ0LXYyLXBvaW50RW5kKSIgc3R5bGU9IiIgY2xhc3M9ImVkZ2UtdGhpY2tuZXNzLW5vcm1hbCBlZGdlLXBhdHRlcm4tc29saWQgZWRnZS10aGlja25lc3Mtbm9ybWFsIGVkZ2UtcGF0dGVybi1zb2xpZCBmbG93Y2hhcnQtbGluayIgaWQ9IkxfV19YXzI0IiBkPSJNNTg5LjIwMiwzMDY4LjE3NEw1ODkuMjAyLDMwNzIuMzQxQzU4OS4yMDIsMzA3Ni41MDcsNTg5LjIwMiwzMDg0Ljg0MSw1OTUuMjQ5LDMwOTIuODE5QzYwMS4yOTUsMzEwMC43OTYsNjEzLjM4OCwzMTA4LjQxOSw2MTkuNDM1LDMxMTIuMjNMNjI1LjQ4MSwzMTE2LjA0MSI+PC9wYXRoPjxwYXRoIG1hcmtlci1lbmQ9InVybCgjZ2VNZXJtYWlkT3V0cHV0LTE3NDE5MjEwNTM3MTBfZmxvd2NoYXJ0LXYyLXBvaW50RW5kKSIgc3R5bGU9IiIgY2xhc3M9ImVkZ2UtdGhpY2tuZXNzLW5vcm1hbCBlZGdlLXBhdHRlcm4tc29saWQgZWRnZS10aGlja25lc3Mtbm9ybWFsIGVkZ2UtcGF0dGVybi1zb2xpZCBmbG93Y2hhcnQtbGluayIgaWQ9IkxfVV9YXzI1IiBkPSJNNzI5LjY3MywyNzU3LjQ4OEw3NTYuNzI4LDI3NzMuMDU0Qzc4My43ODIsMjc4OC42MjEsODM3Ljg5MSwyODE5Ljc1NSw4NjQuOTQ2LDI4NDUuODkzQzg5MiwyODcyLjAzMSw4OTIsMjg5My4xNzQsODkyLDI5MTQuMzE3Qzg5MiwyOTM1LjQ2LDg5MiwyOTU2LjYwMyw4OTIsMjk3Ny43NDZDODkyLDI5OTguODg4LDg5MiwzMDIwLjAzMSw4OTIsMzAzOS4yNjlDODkyLDMwNTguNTA3LDg5MiwzMDc1Ljg0MSw4NzQuOTk3LDMwODguNTIxQzg1Ny45OTMsMzEwMS4yMDEsODIzLjk4NywzMTA5LjIyOCw4MDYuOTgzLDMxMTMuMjQyTDc4OS45OCwzMTE3LjI1NSI+PC9wYXRoPjxwYXRoIG1hcmtlci1lbmQ9InVybCgjZ2VNZXJtYWlkT3V0cHV0LTE3NDE5MjEwNTM3MTBfZmxvd2NoYXJ0LXYyLXBvaW50RW5kKSIgc3R5bGU9IiIgY2xhc3M9ImVkZ2UtdGhpY2tuZXNzLW5vcm1hbCBlZGdlLXBhdHRlcm4tc29saWQgZWRnZS10aGlja25lc3Mtbm9ybWFsIGVkZ2UtcGF0dGVybi1zb2xpZCBmbG93Y2hhcnQtbGluayIgaWQ9IkxfWF9ZXzI2IiBkPSJNNjcxLjcwMSwzMTcyLjE3NEw2NzEuNzAxLDMxNzYuMzQxQzY3MS43MDEsMzE4MC41MDcsNjcxLjcwMSwzMTg4Ljg0MSw2NzEuNzcxLDMxOTYuNTkxQzY3MS44NDEsMzIwNC4zNDEsNjcxLjk4MiwzMjExLjUwOCw2NzIuMDUyLDMyMTUuMDkxTDY3Mi4xMjIsMzIxOC42NzUiPjwvcGF0aD48cGF0aCBtYXJrZXItZW5kPSJ1cmwoI2dlTWVybWFpZE91dHB1dC0xNzQxOTIxMDUzNzEwX2Zsb3djaGFydC12Mi1wb2ludEVuZCkiIHN0eWxlPSIiIGNsYXNzPSJlZGdlLXRoaWNrbmVzcy1ub3JtYWwgZWRnZS1wYXR0ZXJuLXNvbGlkIGVkZ2UtdGhpY2tuZXNzLW5vcm1hbCBlZGdlLXBhdHRlcm4tc29saWQgZmxvd2NoYXJ0LWxpbmsiIGlkPSJMX1lfWl8yNyIgZD0iTTczMy43MTEsMzQxNS4xNkw3NDguOTU5LDM0MzEuNEM3NjQuMjA3LDM0NDcuNjM5LDc5NC43MDMsMzQ4MC4xMTksODA5Ljk1MSwzNTE4LjQzQzgyNS4xOTksMzU1Ni43NCw4MjUuMTk5LDM2MDAuODgyLDgyNS4xOTksMzYyMi45NTRMODI1LjE5OSwzNjQ1LjAyNSI+PC9wYXRoPjxwYXRoIG1hcmtlci1lbmQ9InVybCgjZ2VNZXJtYWlkT3V0cHV0LTE3NDE5MjEwNTM3MTBfZmxvd2NoYXJ0LXYyLXBvaW50RW5kKSIgc3R5bGU9IiIgY2xhc3M9ImVkZ2UtdGhpY2tuZXNzLW5vcm1hbCBlZGdlLXBhdHRlcm4tc29saWQgZWRnZS10aGlja25lc3Mtbm9ybWFsIGVkZ2UtcGF0dGVybi1zb2xpZCBmbG93Y2hhcnQtbGluayIgaWQ9IkxfWV9BQV8yOCIgZD0iTTU5Ny4wMzYsMzQwMS41MDVMNTY5Ljk4MiwzNDIwLjAyQzU0Mi45MjgsMzQzOC41MzYsNDg4LjgxOSwzNDc1LjU2Nyw0NjEuODM5LDM0OTkuNTcxQzQzNC44NiwzNTIzLjU3NSw0MzUuMDA4LDM1MzQuNTUxLDQzNS4wODIsMzU0MC4wMzlMNDM1LjE1NywzNTQ1LjUyNyI+PC9wYXRoPjxwYXRoIG1hcmtlci1lbmQ9InVybCgjZ2VNZXJtYWlkT3V0cHV0LTE3NDE5MjEwNTM3MTBfZmxvd2NoYXJ0LXYyLXBvaW50RW5kKSIgc3R5bGU9IiIgY2xhc3M9ImVkZ2UtdGhpY2tuZXNzLW5vcm1hbCBlZGdlLXBhdHRlcm4tc29saWQgZWRnZS10aGlja25lc3Mtbm9ybWFsIGVkZ2UtcGF0dGVybi1zb2xpZCBmbG93Y2hhcnQtbGluayIgaWQ9IkxfQUFfQUNfMjkiIGQ9Ik00MzUuMjExLDM4MDMuNTIyTDQzNS4xMjgsMzgwNy42MDZDNDM1LjA0NCwzODExLjY4OSw0MzQuODc4LDM4MTkuODU2LDQ1My4xMzMsMzgyNy45NjNDNDcxLjM4OCwzODM2LjA3LDUwOC4wNjUsMzg0NC4xMTgsNTI2LjQwMywzODQ4LjE0MUw1NDQuNzQxLDM4NTIuMTY1Ij48L3BhdGg+PHBhdGggbWFya2VyLWVuZD0idXJsKCNnZU1lcm1haWRPdXRwdXQtMTc0MTkyMTA1MzcxMF9mbG93Y2hhcnQtdjItcG9pbnRFbmQpIiBzdHlsZT0iIiBjbGFzcz0iZWRnZS10aGlja25lc3Mtbm9ybWFsIGVkZ2UtcGF0dGVybi1zb2xpZCBlZGdlLXRoaWNrbmVzcy1ub3JtYWwgZWRnZS1wYXR0ZXJuLXNvbGlkIGZsb3djaGFydC1saW5rIiBpZD0iTF9aX0FDXzMwIiBkPSJNODI1LjE5OSwzNzAzLjAyNUw4MjUuMTk5LDM3MjMuODU4QzgyNS4xOTksMzc0NC42OTEsODI1LjE5OSwzNzg2LjM1Niw4MTMuNTMxLDM4MTEuMTQyQzgwMS44NjMsMzgzNS45MjgsNzc4LjUyNiwzODQzLjgzMyw3NjYuODU4LDM4NDcuNzg2TDc1NS4xOSwzODUxLjczOSI+PC9wYXRoPjxwYXRoIG1hcmtlci1lbmQ9InVybCgjZ2VNZXJtYWlkT3V0cHV0LTE3NDE5MjEwNTM3MTBfZmxvd2NoYXJ0LXYyLXBvaW50RW5kKSIgc3R5bGU9IiIgY2xhc3M9ImVkZ2UtdGhpY2tuZXNzLW5vcm1hbCBlZGdlLXBhdHRlcm4tc29saWQgZWRnZS10aGlja25lc3Mtbm9ybWFsIGVkZ2UtcGF0dGVybi1zb2xpZCBmbG93Y2hhcnQtbGluayIgaWQ9IkxfQUNfQURfMzEiIGQ9Ik02NzEuNzAxLDM5MDcuMDIyTDY3MS43MDEsMzkxMS4xODlDNjcxLjcwMSwzOTE1LjM1Niw2NzEuNzAxLDM5MjMuNjg5LDY3Ny43NjgsMzkzOC45NjdDNjgzLjgzNSwzOTU0LjI0NSw2OTUuOTY5LDM5NzYuNDY4LDcwMi4wMzYsMzk4Ny41OEw3MDguMTAzLDM5OTguNjkxIj48L3BhdGg+PHBhdGggbWFya2VyLWVuZD0idXJsKCNnZU1lcm1haWRPdXRwdXQtMTc0MTkyMTA1MzcxMF9mbG93Y2hhcnQtdjItcG9pbnRFbmQpIiBzdHlsZT0iIiBjbGFzcz0iZWRnZS10aGlja25lc3Mtbm9ybWFsIGVkZ2UtcGF0dGVybi1zb2xpZCBlZGdlLXRoaWNrbmVzcy1ub3JtYWwgZWRnZS1wYXR0ZXJuLXNvbGlkIGZsb3djaGFydC1saW5rIiBpZD0iTF9BRF9BRV8zMiIgZD0iTTc1NC43LDQyMTEuNTE4TDc1NC42MTYsNDIxNy41MDZDNzU0LjUzMyw0MjIzLjQ5NCw3NTQuMzY2LDQyMzUuNDcsNzIyLjMyMiw0MjQ3LjY4M0M2OTAuMjc3LDQyNTkuODk1LDYyNi4zNTQsNDI3Mi4zNDQsNTk0LjM5Miw0Mjc4LjU2OUw1NjIuNDMxLDQyODQuNzkzIj48L3BhdGg+PHBhdGggbWFya2VyLWVuZD0idXJsKCNnZU1lcm1haWRPdXRwdXQtMTc0MTkyMTA1MzcxMF9mbG93Y2hhcnQtdjItcG9pbnRFbmQpIiBzdHlsZT0iIiBjbGFzcz0iZWRnZS10aGlja25lc3Mtbm9ybWFsIGVkZ2UtcGF0dGVybi1zb2xpZCBlZGdlLXRoaWNrbmVzcy1ub3JtYWwgZWRnZS1wYXR0ZXJuLXNvbGlkIGZsb3djaGFydC1saW5rIiBpZD0iTF9BRF9OXzMzIiBkPSJNODMxLjk0Niw0MDM0Ljc2OEw4NTguMzIxLDQwMTcuNjQ0Qzg4NC42OTYsNDAwMC41Miw5MzcuNDQ2LDM5NjYuMjcxLDk2My44MjEsMzk0MC40OEM5OTAuMTk2LDM5MTQuNjg5LDk5MC4xOTYsMzg5Ny4zNTYsOTkwLjE5NiwzODgwLjAyMkM5OTAuMTk2LDM4NjIuNjg5LDk5MC4xOTYsMzg0NS4zNTYsOTkwLjE5NiwzODExLjM1NkM5OTAuMTk2LDM3NzcuMzU2LDk5MC4xOTYsMzcyNi42OTEsOTkwLjE5NiwzNjc0LjEyQzk5MC4xOTYsMzYyMS41NDksOTkwLjE5NiwzNTY3LjA3NCw5OTAuMTk2LDM1MTIuNTk4Qzk5MC4xOTYsMzQ1OC4xMjMsOTkwLjE5NiwzNDAzLjY0Nyw5OTAuMTk2LDMzNTEuMDc3Qzk5MC4xOTYsMzI5OC41MDYsOTkwLjE5NiwzMjQ3Ljg0LDk5MC4xOTYsMzIxMy44NEM5OTAuMTk2LDMxNzkuODQxLDk5MC4xOTYsMzE2Mi41MDcsOTkwLjE5NiwzMTQ1LjE3NEM5OTAuMTk2LDMxMjcuODQxLDk5MC4xOTYsMzExMC41MDcsOTkwLjE5NiwzMDkzLjE3NEM5OTAuMTk2LDMwNzUuODQxLDk5MC4xOTYsMzA1OC41MDcsOTkwLjE5NiwzMDM5LjI2OUM5OTAuMTk2LDMwMjAuMDMxLDk5MC4xOTYsMjk5OC44ODgsOTkwLjE5NiwyOTc3Ljc0NkM5OTAuMTk2LDI5NTYuNjAzLDk5MC4xOTYsMjkzNS40Niw5OTAuMTk2LDI5MTQuMzE3Qzk5MC4xOTYsMjg5My4xNzQsOTkwLjE5NiwyODcyLjAzMSw5OTAuMTk2LDI4NDAuMjg2Qzk5MC4xOTYsMjgwOC41NCw5OTAuMTk2LDI3NjYuMTkyLDk5MC4xOTYsMjcyNS43NDlDOTkwLjE5NiwyNjg1LjMwNSw5OTAuMTk2LDI2NDYuNzY2LDk5MC4xOTYsMjYxOC44M0M5OTAuMTk2LDI1OTAuODk0LDk5MC4xOTYsMjU3My41NjEsOTkwLjE5NiwyNTU0LjMyM0M5OTAuMTk2LDI1MzUuMDg1LDk5MC4xOTYsMjUxMy45NDIsOTkwLjE5NiwyNDgyLjE5NkM5OTAuMTk2LDI0NTAuNDUxLDk5MC4xOTYsMjQwOC4xMDMsOTkwLjE5NiwyMzY3LjY1OUM5OTAuMTk2LDIzMjcuMjE2LDk5MC4xOTYsMjI4OC42NzcsOTkwLjE5NiwyMjYwLjc0MUM5OTAuMTk2LDIyMzIuODA1LDk5MC4xOTYsMjIxNS40NzIsOTkwLjE5NiwyMTk4LjEzOEM5OTAuMTk2LDIxODAuODA1LDk5MC4xOTYsMjE2My40NzIsOTkwLjE5NiwyMTQ2LjEzOEM5OTAuMTk2LDIxMjguODA1LDk5MC4xOTYsMjExMS40NzIsOTkwLjE5NiwyMDkyLjIzNEM5OTAuMTk2LDIwNzIuOTk2LDk5MC4xOTYsMjA1MS44NTMsOTkwLjE5NiwyMDE0LjA0NEM5OTAuMTk2LDE5NzYuMjM0LDk5MC4xOTYsMTkyMS43NTksOTkwLjE5NiwxODY5LjE4OEM5OTAuMTk2LDE4MTYuNjE4LDk5MC4xOTYsMTc2NS45NTIsOTkwLjE5NiwxNzMxLjk1MkM5OTAuMTk2LDE2OTcuOTUyLDk5MC4xOTYsMTY4MC42MTksOTkwLjE5NiwxNjYzLjI4NkM5OTAuMTk2LDE2NDUuOTUyLDk5MC4xOTYsMTYyOC42MTksOTI1LjUxOCwxNjEyLjkzNEM4NjAuODM5LDE1OTcuMjQ4LDczMS40ODEsMTU4My4yMTEsNjY2LjgwMiwxNTc2LjE5Mkw2MDIuMTIzLDE1NjkuMTczIj48L3BhdGg+PHBhdGggbWFya2VyLWVuZD0idXJsKCNnZU1lcm1haWRPdXRwdXQtMTc0MTkyMTA1MzcxMF9mbG93Y2hhcnQtdjItcG9pbnRFbmQpIiBzdHlsZT0iIiBjbGFzcz0iZWRnZS10aGlja25lc3Mtbm9ybWFsIGVkZ2UtcGF0dGVybi1zb2xpZCBlZGdlLXRoaWNrbmVzcy1ub3JtYWwgZWRnZS1wYXR0ZXJuLXNvbGlkIGZsb3djaGFydC1saW5rIiBpZD0iTF9RX0FGXzM0IiBkPSJNMjI0LjkxNywyMTIxLjEzOEwyMjQuMTE2LDIxMjUuMzA1QzIyMy4zMTUsMjEyOS40NzIsMjIxLjcxMiwyMTM3LjgwNSwyMjAuOTExLDIxNDUuNDcyQzIyMC4xMDksMjE1My4xMzgsMjIwLjEwOSwyMTYwLjEzOCwyMjAuMTA5LDIxNjMuNjM4TDIyMC4xMDksMjE2Ny4xMzgiPjwvcGF0aD48cGF0aCBtYXJrZXItZW5kPSJ1cmwoI2dlTWVybWFpZE91dHB1dC0xNzQxOTIxMDUzNzEwX2Zsb3djaGFydC12Mi1wb2ludEVuZCkiIHN0eWxlPSIiIGNsYXNzPSJlZGdlLXRoaWNrbmVzcy1ub3JtYWwgZWRnZS1wYXR0ZXJuLXNvbGlkIGVkZ2UtdGhpY2tuZXNzLW5vcm1hbCBlZGdlLXBhdHRlcm4tc29saWQgZmxvd2NoYXJ0LWxpbmsiIGlkPSJMX0FGX0FHXzM1IiBkPSJNMjIwLjEwOSwyMjI1LjEzOEwyMjAuMTA5LDIyMjkuMzA1QzIyMC4xMDksMjIzMy40NzIsMjIwLjEwOSwyMjQxLjgwNSwyMjAuMTgsMjI0OS41NTVDMjIwLjI1LDIyNTcuMzA1LDIyMC4zOSwyMjY0LjQ3MiwyMjAuNDYxLDIyNjguMDU2TDIyMC41MzEsMjI3MS42MzkiPjwvcGF0aD48cGF0aCBtYXJrZXItZW5kPSJ1cmwoI2dlTWVybWFpZE91dHB1dC0xNzQxOTIxMDUzNzEwX2Zsb3djaGFydC12Mi1wb2ludEVuZCkiIHN0eWxlPSIiIGNsYXNzPSJlZGdlLXRoaWNrbmVzcy1ub3JtYWwgZWRnZS1wYXR0ZXJuLXNvbGlkIGVkZ2UtdGhpY2tuZXNzLW5vcm1hbCBlZGdlLXBhdHRlcm4tc29saWQgZmxvd2NoYXJ0LWxpbmsiIGlkPSJMX0FHX0FIXzM2IiBkPSJNMjU3Ljc0LDI0MTkuNzRMMjY2LjE2OCwyNDMxLjkxN0MyNzQuNTk1LDI0NDQuMDkzLDI5MS40NTEsMjQ2OC40NDYsMjk5Ljg3OCwyNDg2LjAyN0MzMDguMzA2LDI1MDMuNjA5LDMwOC4zMDYsMjUxNC40MTgsMzA4LjMwNiwyNTE5LjgyM0wzMDguMzA2LDI1MjUuMjI4Ij48L3BhdGg+PHBhdGggbWFya2VyLWVuZD0idXJsKCNnZU1lcm1haWRPdXRwdXQtMTc0MTkyMTA1MzcxMF9mbG93Y2hhcnQtdjItcG9pbnRFbmQpIiBzdHlsZT0iIiBjbGFzcz0iZWRnZS10aGlja25lc3Mtbm9ybWFsIGVkZ2UtcGF0dGVybi1zb2xpZCBlZGdlLXRoaWNrbmVzcy1ub3JtYWwgZWRnZS1wYXR0ZXJuLXNvbGlkIGZsb3djaGFydC1saW5rIiBpZD0iTF9BR19BSV8zNyIgZD0iTTE4My40NzksMjQxOS43NEwxNzQuODg1LDI0MzEuOTE3QzE2Ni4yOSwyNDQ0LjA5MywxNDkuMTAyLDI0NjguNDQ2LDE0MC41MDcsMjQ5MS4xOTRDMTMxLjkxMywyNTEzLjk0MiwxMzEuOTEzLDI1MzUuMDg1LDEzMS45MTMsMjU1NC4zMjNDMTMxLjkxMywyNTczLjU2MSwxMzEuOTEzLDI1OTAuODk0LDE0Mi43NzUsMjYxMy44QzE1My42MzgsMjYzNi43MDYsMTc1LjM2MiwyNjY1LjE4NSwxODYuMjI0LDI2NzkuNDI0TDE5Ny4wODcsMjY5My42NjMiPjwvcGF0aD48cGF0aCBtYXJrZXItZW5kPSJ1cmwoI2dlTWVybWFpZE91dHB1dC0xNzQxOTIxMDUzNzEwX2Zsb3djaGFydC12Mi1wb2ludEVuZCkiIHN0eWxlPSIiIGNsYXNzPSJlZGdlLXRoaWNrbmVzcy1ub3JtYWwgZWRnZS1wYXR0ZXJuLXNvbGlkIGVkZ2UtdGhpY2tuZXNzLW5vcm1hbCBlZGdlLXBhdHRlcm4tc29saWQgZmxvd2NoYXJ0LWxpbmsiIGlkPSJMX0FIX0FJXzM4IiBkPSJNMzA4LjMwNiwyNTgzLjIyOEwzMDguMzA2LDI1ODcuMzk0QzMwOC4zMDYsMjU5MS41NjEsMzA4LjMwNiwyNTk5Ljg5NCwyOTcuNDQ0LDI2MTguM0MyODYuNTgxLDI2MzYuNzA2LDI2NC44NTcsMjY2NS4xODUsMjUzLjk5NCwyNjc5LjQyNEwyNDMuMTMyLDI2OTMuNjYzIj48L3BhdGg+PHBhdGggbWFya2VyLWVuZD0idXJsKCNnZU1lcm1haWRPdXRwdXQtMTc0MTkyMTA1MzcxMF9mbG93Y2hhcnQtdjItcG9pbnRFbmQpIiBzdHlsZT0iIiBjbGFzcz0iZWRnZS10aGlja25lc3Mtbm9ybWFsIGVkZ2UtcGF0dGVybi1zb2xpZCBlZGdlLXRoaWNrbmVzcy1ub3JtYWwgZWRnZS1wYXR0ZXJuLXNvbGlkIGZsb3djaGFydC1saW5rIiBpZD0iTF9BSV9BSl8zOSIgZD0iTTIyMC4xMDksMjc1MC44NDRMMjIwLjEwOSwyNzY3LjUxOEMyMjAuMTA5LDI3ODQuMTkyLDIyMC4xMDksMjgxNy41NCwyMjAuMTA5LDI4MzkuNjE5QzIyMC4xMDksMjg2MS42OTgsMjIwLjEwOSwyODcyLjUwNywyMjAuMTA5LDI4NzcuOTEyTDIyMC4xMDksMjg4My4zMTciPjwvcGF0aD48L2c+PGcgY2xhc3M9ImVkZ2VMYWJlbHMiPjxnPjxyZWN0IHN0eWxlPSJzdHJva2U6IG5vbmUiIGNsYXNzPSJiYWNrZ3JvdW5kIj48L3JlY3Q+PC9nPjxnPjxyZWN0IHN0eWxlPSJzdHJva2U6IG5vbmUiIGNsYXNzPSJiYWNrZ3JvdW5kIj48L3JlY3Q+PC9nPjxnPjxyZWN0IHN0eWxlPSJzdHJva2U6IG5vbmUiIGNsYXNzPSJiYWNrZ3JvdW5kIj48L3JlY3Q+PC9nPjxnPjxyZWN0IHN0eWxlPSJzdHJva2U6IG5vbmUiIGNsYXNzPSJiYWNrZ3JvdW5kIj48L3JlY3Q+PC9nPjxnPjxyZWN0IHN0eWxlPSJzdHJva2U6IG5vbmUiIGNsYXNzPSJiYWNrZ3JvdW5kIj48L3JlY3Q+PC9nPjxnPjxyZWN0IHN0eWxlPSJzdHJva2U6IG5vbmUiIGNsYXNzPSJiYWNrZ3JvdW5kIj48L3JlY3Q+PC9nPjxnPjxyZWN0IHN0eWxlPSJzdHJva2U6IG5vbmUiIGNsYXNzPSJiYWNrZ3JvdW5kIj48L3JlY3Q+PC9nPjxnPjxyZWN0IHN0eWxlPSJzdHJva2U6IG5vbmUiIGNsYXNzPSJiYWNrZ3JvdW5kIj48L3JlY3Q+PC9nPjxnPjxyZWN0IHN0eWxlPSJzdHJva2U6IG5vbmUiIGNsYXNzPSJiYWNrZ3JvdW5kIj48L3JlY3Q+PC9nPjxnPjxyZWN0IHN0eWxlPSJzdHJva2U6IG5vbmUiIGNsYXNzPSJiYWNrZ3JvdW5kIj48L3JlY3Q+PC9nPjxnPjxyZWN0IHN0eWxlPSJzdHJva2U6IG5vbmUiIGNsYXNzPSJiYWNrZ3JvdW5kIj48L3JlY3Q+PC9nPjxnPjxyZWN0IHN0eWxlPSJzdHJva2U6IG5vbmUiIGNsYXNzPSJiYWNrZ3JvdW5kIj48L3JlY3Q+PC9nPjxnPjxyZWN0IHN0eWxlPSJzdHJva2U6IG5vbmUiIGNsYXNzPSJiYWNrZ3JvdW5kIj48L3JlY3Q+PC9nPjxnPjxyZWN0IHN0eWxlPSJzdHJva2U6IG5vbmUiIGNsYXNzPSJiYWNrZ3JvdW5kIj48L3JlY3Q+PC9nPjxnPjxyZWN0IHN0eWxlPSJzdHJva2U6IG5vbmUiIGNsYXNzPSJiYWNrZ3JvdW5kIj48L3JlY3Q+PC9nPjxnPjxyZWN0IHN0eWxlPSJzdHJva2U6IG5vbmUiIGNsYXNzPSJiYWNrZ3JvdW5kIj48L3JlY3Q+PC9nPjxnPjxyZWN0IHN0eWxlPSJzdHJva2U6IG5vbmUiIGNsYXNzPSJiYWNrZ3JvdW5kIj48L3JlY3Q+PC9nPjxnPjxyZWN0IHN0eWxlPSJzdHJva2U6IG5vbmUiIGNsYXNzPSJiYWNrZ3JvdW5kIj48L3JlY3Q+PC9nPjxnPjxyZWN0IHN0eWxlPSJzdHJva2U6IG5vbmUiIGNsYXNzPSJiYWNrZ3JvdW5kIj48L3JlY3Q+PC9nPjxnPjxyZWN0IHN0eWxlPSJzdHJva2U6IG5vbmUiIGNsYXNzPSJiYWNrZ3JvdW5kIj48L3JlY3Q+PC9nPjxnPjxyZWN0IHN0eWxlPSJzdHJva2U6IG5vbmUiIGNsYXNzPSJiYWNrZ3JvdW5kIj48L3JlY3Q+PC9nPjxnPjxyZWN0IHN0eWxlPSJzdHJva2U6IG5vbmUiIGNsYXNzPSJiYWNrZ3JvdW5kIj48L3JlY3Q+PC9nPjxnPjxyZWN0IHN0eWxlPSJzdHJva2U6IG5vbmUiIGNsYXNzPSJiYWNrZ3JvdW5kIj48L3JlY3Q+PC9nPjxnPjxyZWN0IHN0eWxlPSJzdHJva2U6IG5vbmUiIGNsYXNzPSJiYWNrZ3JvdW5kIj48L3JlY3Q+PC9nPjxnPjxyZWN0IHN0eWxlPSJzdHJva2U6IG5vbmUiIGNsYXNzPSJiYWNrZ3JvdW5kIj48L3JlY3Q+PC9nPjxnPjxyZWN0IHN0eWxlPSJzdHJva2U6IG5vbmUiIGNsYXNzPSJiYWNrZ3JvdW5kIj48L3JlY3Q+PC9nPjxnIGNsYXNzPSJlZGdlTGFiZWwiPjxnIHRyYW5zZm9ybT0idHJhbnNsYXRlKDAsIDApIiBjbGFzcz0ibGFiZWwiPjx0ZXh0IHk9Ii0xMC4xIj48dHNwYW4gZHk9IjEuMWVtIiB5PSItMC4xZW0iIHg9IjAiIGNsYXNzPSJ0ZXh0LW91dGVyLXRzcGFuIj48L3RzcGFuPjwvdGV4dD48L2c+PC9nPjxnIGNsYXNzPSJlZGdlTGFiZWwiPjxnIHRyYW5zZm9ybT0idHJhbnNsYXRlKDAsIDApIiBjbGFzcz0ibGFiZWwiPjx0ZXh0IHk9Ii0xMC4xIj48dHNwYW4gZHk9IjEuMWVtIiB5PSItMC4xZW0iIHg9IjAiIGNsYXNzPSJ0ZXh0LW91dGVyLXRzcGFuIj48L3RzcGFuPjwvdGV4dD48L2c+PC9nPjxnIHRyYW5zZm9ybT0idHJhbnNsYXRlKDEzNy45OTc3NzIyMTY3OTY4OCwgMzg4LjI0NTUyNzI2NzQ1NjA1KSIgY2xhc3M9ImVkZ2VMYWJlbCI+PGcgdHJhbnNmb3JtPSJ0cmFuc2xhdGUoLTExLjM5NTA4OTE0OTQ3NTA5OCwgLTExLjQyODU3MTcwMTA0OTgwNSkiIGNsYXNzPSJsYWJlbCI+PGc+PHJlY3QgaGVpZ2h0PSIyMi44NTcxNDM0MDIwOTk2MSIgd2lkdGg9IjIyLjc5MDE3ODI5ODk1MDE5NSIgeT0iLTEuNDI4NTcxOTM5NDY4MzgzOCIgeD0iLTIiIHN0eWxlPSIiIGNsYXNzPSJiYWNrZ3JvdW5kIj48L3JlY3Q+PHRleHQgc3R5bGU9IiIgeT0iLTEwLjEiPjx0c3BhbiBkeT0iMS4xZW0iIHk9Ii0wLjFlbSIgeD0iMCIgY2xhc3M9InRleHQtb3V0ZXItdHNwYW4iPjx0c3BhbiBmb250LXdlaWdodD0ibm9ybWFsIiBjbGFzcz0idGV4dC1pbm5lci10c3BhbiIgZm9udC1zdHlsZT0ibm9ybWFsIj5ObzwvdHNwYW4+PC90c3Bhbj48L3RleHQ+PC9nPjwvZz48L2c+PGcgdHJhbnNmb3JtPSJ0cmFuc2xhdGUoNDI4LjUwNjcwNjIzNzc5Mjk3LCAzODguMjQ1NTI3MjY3NDU2MDUpIiBjbGFzcz0iZWRnZUxhYmVsIj48ZyB0cmFuc2Zvcm09InRyYW5zbGF0ZSgtMTMuOTQwMTkxMjY4OTIwODk4LCAtMTEuNDI4NTcxNzAxMDQ5ODA1KSIgY2xhc3M9ImxhYmVsIj48Zz48cmVjdCBoZWlnaHQ9IjIyLjg1NzE0MzQwMjA5OTYxIiB3aWR0aD0iMjcuODgwMzgwNjMwNDkzMTY0IiB5PSItMS40Mjg1NzE5Mzk0NjgzODM4IiB4PSItMi44NTcxNDI4NjU2NTc4MDY0IiBzdHlsZT0iIiBjbGFzcz0iYmFja2dyb3VuZCI+PC9yZWN0Pjx0ZXh0IHN0eWxlPSIiIHk9Ii0xMC4xIj48dHNwYW4gZHk9IjEuMWVtIiB5PSItMC4xZW0iIHg9IjAiIGNsYXNzPSJ0ZXh0LW91dGVyLXRzcGFuIj48dHNwYW4gZm9udC13ZWlnaHQ9Im5vcm1hbCIgY2xhc3M9InRleHQtaW5uZXItdHNwYW4iIGZvbnQtc3R5bGU9Im5vcm1hbCI+WWVzPC90c3Bhbj48L3RzcGFuPjwvdGV4dD48L2c+PC9nPjwvZz48ZyBjbGFzcz0iZWRnZUxhYmVsIj48ZyB0cmFuc2Zvcm09InRyYW5zbGF0ZSgwLCAwKSIgY2xhc3M9ImxhYmVsIj48dGV4dCB5PSItMTAuMSI+PHRzcGFuIGR5PSIxLjFlbSIgeT0iLTAuMWVtIiB4PSIwIiBjbGFzcz0idGV4dC1vdXRlci10c3BhbiI+PC90c3Bhbj48L3RleHQ+PC9nPjwvZz48ZyBjbGFzcz0iZWRnZUxhYmVsIj48ZyB0cmFuc2Zvcm09InRyYW5zbGF0ZSgwLCAwKSIgY2xhc3M9ImxhYmVsIj48dGV4dCB5PSItMTAuMSI+PHRzcGFuIGR5PSIxLjFlbSIgeT0iLTAuMWVtIiB4PSIwIiBjbGFzcz0idGV4dC1vdXRlci10c3BhbiI+PC90c3Bhbj48L3RleHQ+PC9nPjwvZz48ZyBjbGFzcz0iZWRnZUxhYmVsIj48ZyB0cmFuc2Zvcm09InRyYW5zbGF0ZSgwLCAwKSIgY2xhc3M9ImxhYmVsIj48dGV4dCB5PSItMTAuMSI+PHRzcGFuIGR5PSIxLjFlbSIgeT0iLTAuMWVtIiB4PSIwIiBjbGFzcz0idGV4dC1vdXRlci10c3BhbiI+PC90c3Bhbj48L3RleHQ+PC9nPjwvZz48ZyBjbGFzcz0iZWRnZUxhYmVsIj48ZyB0cmFuc2Zvcm09InRyYW5zbGF0ZSgwLCAwKSIgY2xhc3M9ImxhYmVsIj48dGV4dCB5PSItMTAuMSI+PHRzcGFuIGR5PSIxLjFlbSIgeT0iLTAuMWVtIiB4PSIwIiBjbGFzcz0idGV4dC1vdXRlci10c3BhbiI+PC90c3Bhbj48L3RleHQ+PC9nPjwvZz48ZyBjbGFzcz0iZWRnZUxhYmVsIj48ZyB0cmFuc2Zvcm09InRyYW5zbGF0ZSgwLCAwKSIgY2xhc3M9ImxhYmVsIj48dGV4dCB5PSItMTAuMSI+PHRzcGFuIGR5PSIxLjFlbSIgeT0iLTAuMWVtIiB4PSIwIiBjbGFzcz0idGV4dC1vdXRlci10c3BhbiI+PC90c3Bhbj48L3RleHQ+PC9nPjwvZz48ZyBjbGFzcz0iZWRnZUxhYmVsIj48ZyB0cmFuc2Zvcm09InRyYW5zbGF0ZSgwLCAwKSIgY2xhc3M9ImxhYmVsIj48dGV4dCB5PSItMTAuMSI+PHRzcGFuIGR5PSIxLjFlbSIgeT0iLTAuMWVtIiB4PSIwIiBjbGFzcz0idGV4dC1vdXRlci10c3BhbiI+PC90c3Bhbj48L3RleHQ+PC9nPjwvZz48ZyB0cmFuc2Zvcm09InRyYW5zbGF0ZSgyOC4wMTg5NzY2ODgzODUwMSwgMjU1Ni4yMjc2OTE2NTAzOTA2KSIgY2xhc3M9ImVkZ2VMYWJlbCI+PGcgdHJhbnNmb3JtPSJ0cmFuc2xhdGUoLTExLjM5NTA4OTE0OTQ3NTA5OCwgLTExLjQyODU3MTcwMTA0OTgwNSkiIGNsYXNzPSJsYWJlbCI+PGc+PHJlY3QgaGVpZ2h0PSIyMi44NTcxNDM0MDIwOTk2MSIgd2lkdGg9IjIyLjc5MDE3ODI5ODk1MDE5NSIgeT0iLTEuNDI4NTcxOTM5NDY4MzgzOCIgeD0iLTIiIHN0eWxlPSIiIGNsYXNzPSJiYWNrZ3JvdW5kIj48L3JlY3Q+PHRleHQgc3R5bGU9IiIgeT0iLTEwLjEiPjx0c3BhbiBkeT0iMS4xZW0iIHk9Ii0wLjFlbSIgeD0iMCIgY2xhc3M9InRleHQtb3V0ZXItdHNwYW4iPjx0c3BhbiBmb250LXdlaWdodD0ibm9ybWFsIiBjbGFzcz0idGV4dC1pbm5lci10c3BhbiIgZm9udC1zdHlsZT0ibm9ybWFsIj5ObzwvdHNwYW4+PC90c3Bhbj48L3RleHQ+PC9nPjwvZz48L2c+PGcgdHJhbnNmb3JtPSJ0cmFuc2xhdGUoNTExLjAwNTU5MjM0NjE5MTQsIDEyODcuODU3MTQxNDk0NzUxKSIgY2xhc3M9ImVkZ2VMYWJlbCI+PGcgdHJhbnNmb3JtPSJ0cmFuc2xhdGUoLTEzLjk0MDE5MTI2ODkyMDg5OCwgLTExLjQyODU3MTcwMTA0OTgwNSkiIGNsYXNzPSJsYWJlbCI+PGc+PHJlY3QgaGVpZ2h0PSIyMi44NTcxNDM0MDIwOTk2MSIgd2lkdGg9IjI3Ljg4MDM4MDYzMDQ5MzE2NCIgeT0iLTEuNDI4NTcxOTM5NDY4MzgzOCIgeD0iLTIuODU3MTQyODY1NjU3ODA2NCIgc3R5bGU9IiIgY2xhc3M9ImJhY2tncm91bmQiPjwvcmVjdD48dGV4dCBzdHlsZT0iIiB5PSItMTAuMSI+PHRzcGFuIGR5PSIxLjFlbSIgeT0iLTAuMWVtIiB4PSIwIiBjbGFzcz0idGV4dC1vdXRlci10c3BhbiI+PHRzcGFuIGZvbnQtd2VpZ2h0PSJub3JtYWwiIGNsYXNzPSJ0ZXh0LWlubmVyLXRzcGFuIiBmb250LXN0eWxlPSJub3JtYWwiPlllczwvdHNwYW4+PC90c3Bhbj48L3RleHQ+PC9nPjwvZz48L2c+PGcgY2xhc3M9ImVkZ2VMYWJlbCI+PGcgdHJhbnNmb3JtPSJ0cmFuc2xhdGUoMCwgMCkiIGNsYXNzPSJsYWJlbCI+PHRleHQgeT0iLTEwLjEiPjx0c3BhbiBkeT0iMS4xZW0iIHk9Ii0wLjFlbSIgeD0iMCIgY2xhc3M9InRleHQtb3V0ZXItdHNwYW4iPjwvdHNwYW4+PC90ZXh0PjwvZz48L2c+PGcgY2xhc3M9ImVkZ2VMYWJlbCI+PGcgdHJhbnNmb3JtPSJ0cmFuc2xhdGUoMCwgMCkiIGNsYXNzPSJsYWJlbCI+PHRleHQgeT0iLTEwLjEiPjx0c3BhbiBkeT0iMS4xZW0iIHk9Ii0wLjFlbSIgeD0iMCIgY2xhc3M9InRleHQtb3V0ZXItdHNwYW4iPjwvdHNwYW4+PC90ZXh0PjwvZz48L2c+PGcgY2xhc3M9ImVkZ2VMYWJlbCI+PGcgdHJhbnNmb3JtPSJ0cmFuc2xhdGUoMCwgMCkiIGNsYXNzPSJsYWJlbCI+PHRleHQgeT0iLTEwLjEiPjx0c3BhbiBkeT0iMS4xZW0iIHk9Ii0wLjFlbSIgeD0iMCIgY2xhc3M9InRleHQtb3V0ZXItdHNwYW4iPjwvdHNwYW4+PC90ZXh0PjwvZz48L2c+PGcgY2xhc3M9ImVkZ2VMYWJlbCI+PGcgdHJhbnNmb3JtPSJ0cmFuc2xhdGUoMCwgMCkiIGNsYXNzPSJsYWJlbCI+PHRleHQgeT0iLTEwLjEiPjx0c3BhbiBkeT0iMS4xZW0iIHk9Ii0wLjFlbSIgeD0iMCIgY2xhc3M9InRleHQtb3V0ZXItdHNwYW4iPjwvdHNwYW4+PC90ZXh0PjwvZz48L2c+PGcgdHJhbnNmb3JtPSJ0cmFuc2xhdGUoMjMwLjEwOTM4MjYyOTM5NDUzLCAyMDMwLjcwOTgyOTMzMDQ0NDMpIiBjbGFzcz0iZWRnZUxhYmVsIj48ZyB0cmFuc2Zvcm09InRyYW5zbGF0ZSgtMTMuOTQwMTkxMjY4OTIwODk4LCAtMTEuNDI4NTcxNzAxMDQ5ODA1KSIgY2xhc3M9ImxhYmVsIj48Zz48cmVjdCBoZWlnaHQ9IjIyLjg1NzE0MzQwMjA5OTYxIiB3aWR0aD0iMjcuODgwMzgwNjMwNDkzMTY0IiB5PSItMS40Mjg1NzE5Mzk0NjgzODM4IiB4PSItMi44NTcxNDI4NjU2NTc4MDY0IiBzdHlsZT0iIiBjbGFzcz0iYmFja2dyb3VuZCI+PC9yZWN0Pjx0ZXh0IHN0eWxlPSIiIHk9Ii0xMC4xIj48dHNwYW4gZHk9IjEuMWVtIiB5PSItMC4xZW0iIHg9IjAiIGNsYXNzPSJ0ZXh0LW91dGVyLXRzcGFuIj48dHNwYW4gZm9udC13ZWlnaHQ9Im5vcm1hbCIgY2xhc3M9InRleHQtaW5uZXItdHNwYW4iIGZvbnQtc3R5bGU9Im5vcm1hbCI+WWVzPC90c3Bhbj48L3RzcGFuPjwvdGV4dD48L2c+PC9nPjwvZz48ZyBjbGFzcz0iZWRnZUxhYmVsIj48ZyB0cmFuc2Zvcm09InRyYW5zbGF0ZSgwLCAwKSIgY2xhc3M9ImxhYmVsIj48dGV4dCB5PSItMTAuMSI+PHRzcGFuIGR5PSIxLjFlbSIgeT0iLTAuMWVtIiB4PSIwIiBjbGFzcz0idGV4dC1vdXRlci10c3BhbiI+PC90c3Bhbj48L3RleHQ+PC9nPjwvZz48ZyB0cmFuc2Zvcm09InRyYW5zbGF0ZSg4OTIuMDAwMDIyODg4MTgzNiwgMjA5NC4xMzg0MDEwMzE0OTQpIiBjbGFzcz0iZWRnZUxhYmVsIj48ZyB0cmFuc2Zvcm09InRyYW5zbGF0ZSgtMTEuMzk1MDg5MTQ5NDc1MDk4LCAtMTEuNDI4NTcxNzAxMDQ5ODA1KSIgY2xhc3M9ImxhYmVsIj48Zz48cmVjdCBoZWlnaHQ9IjIyLjg1NzE0MzQwMjA5OTYxIiB3aWR0aD0iMjIuNzkwMTc4Mjk4OTUwMTk1IiB5PSItMS40Mjg1NzE5Mzk0NjgzODM4IiB4PSItMiIgc3R5bGU9IiIgY2xhc3M9ImJhY2tncm91bmQiPjwvcmVjdD48dGV4dCBzdHlsZT0iIiB5PSItMTAuMSI+PHRzcGFuIGR5PSIxLjFlbSIgeT0iLTAuMWVtIiB4PSIwIiBjbGFzcz0idGV4dC1vdXRlci10c3BhbiI+PHRzcGFuIGZvbnQtd2VpZ2h0PSJub3JtYWwiIGNsYXNzPSJ0ZXh0LWlubmVyLXRzcGFuIiBmb250LXN0eWxlPSJub3JtYWwiPk5vPC90c3Bhbj48L3RzcGFuPjwvdGV4dD48L2c+PC9nPjwvZz48ZyBjbGFzcz0iZWRnZUxhYmVsIj48ZyB0cmFuc2Zvcm09InRyYW5zbGF0ZSgwLCAwKSIgY2xhc3M9ImxhYmVsIj48dGV4dCB5PSItMTAuMSI+PHRzcGFuIGR5PSIxLjFlbSIgeT0iLTAuMWVtIiB4PSIwIiBjbGFzcz0idGV4dC1vdXRlci10c3BhbiI+PC90c3Bhbj48L3RleHQ+PC9nPjwvZz48ZyBjbGFzcz0iZWRnZUxhYmVsIj48ZyB0cmFuc2Zvcm09InRyYW5zbGF0ZSgwLCAwKSIgY2xhc3M9ImxhYmVsIj48dGV4dCB5PSItMTAuMSI+PHRzcGFuIGR5PSIxLjFlbSIgeT0iLTAuMWVtIiB4PSIwIiBjbGFzcz0idGV4dC1vdXRlci10c3BhbiI+PC90c3Bhbj48L3RleHQ+PC9nPjwvZz48ZyBjbGFzcz0iZWRnZUxhYmVsIj48ZyB0cmFuc2Zvcm09InRyYW5zbGF0ZSgwLCAwKSIgY2xhc3M9ImxhYmVsIj48dGV4dCB5PSItMTAuMSI+PHRzcGFuIGR5PSIxLjFlbSIgeT0iLTAuMWVtIiB4PSIwIiBjbGFzcz0idGV4dC1vdXRlci10c3BhbiI+PC90c3Bhbj48L3RleHQ+PC9nPjwvZz48ZyB0cmFuc2Zvcm09InRyYW5zbGF0ZSg1ODkuMjAyMDIzMDI5MzI3NCwgMjg1MC44ODg0MTA1NjgyMzczKSIgY2xhc3M9ImVkZ2VMYWJlbCI+PGcgdHJhbnNmb3JtPSJ0cmFuc2xhdGUoLTEzLjk0MDE5MTI2ODkyMDg5OCwgLTExLjQyODU3MTcwMTA0OTgwNSkiIGNsYXNzPSJsYWJlbCI+PGc+PHJlY3QgaGVpZ2h0PSIyMi44NTcxNDM0MDIwOTk2MSIgd2lkdGg9IjI3Ljg4MDM4MDYzMDQ5MzE2NCIgeT0iLTEuNDI4NTcxOTM5NDY4MzgzOCIgeD0iLTIuODU3MTQyODY1NjU3ODA2NCIgc3R5bGU9IiIgY2xhc3M9ImJhY2tncm91bmQiPjwvcmVjdD48dGV4dCBzdHlsZT0iIiB5PSItMTAuMSI+PHRzcGFuIGR5PSIxLjFlbSIgeT0iLTAuMWVtIiB4PSIwIiBjbGFzcz0idGV4dC1vdXRlci10c3BhbiI+PHRzcGFuIGZvbnQtd2VpZ2h0PSJub3JtYWwiIGNsYXNzPSJ0ZXh0LWlubmVyLXRzcGFuIiBmb250LXN0eWxlPSJub3JtYWwiPlllczwvdHNwYW4+PC90c3Bhbj48L3RleHQ+PC9nPjwvZz48L2c+PGcgY2xhc3M9ImVkZ2VMYWJlbCI+PGcgdHJhbnNmb3JtPSJ0cmFuc2xhdGUoMCwgMCkiIGNsYXNzPSJsYWJlbCI+PHRleHQgeT0iLTEwLjEiPjx0c3BhbiBkeT0iMS4xZW0iIHk9Ii0wLjFlbSIgeD0iMCIgY2xhc3M9InRleHQtb3V0ZXItdHNwYW4iPjwvdHNwYW4+PC90ZXh0PjwvZz48L2c+PGcgY2xhc3M9ImVkZ2VMYWJlbCI+PGcgdHJhbnNmb3JtPSJ0cmFuc2xhdGUoMCwgMCkiIGNsYXNzPSJsYWJlbCI+PHRleHQgeT0iLTEwLjEiPjx0c3BhbiBkeT0iMS4xZW0iIHk9Ii0wLjFlbSIgeD0iMCIgY2xhc3M9InRleHQtb3V0ZXItdHNwYW4iPjwvdHNwYW4+PC90ZXh0PjwvZz48L2c+PGcgdHJhbnNmb3JtPSJ0cmFuc2xhdGUoODkyLjAwMDAyMjg4ODE4MzYsIDI5NzcuNzQ1NTUzOTcwMzM3KSIgY2xhc3M9ImVkZ2VMYWJlbCI+PGcgdHJhbnNmb3JtPSJ0cmFuc2xhdGUoLTExLjM5NTA4OTE0OTQ3NTA5OCwgLTExLjQyODU3MTcwMTA0OTgwNSkiIGNsYXNzPSJsYWJlbCI+PGc+PHJlY3QgaGVpZ2h0PSIyMi44NTcxNDM0MDIwOTk2MSIgd2lkdGg9IjIyLjc5MDE3ODI5ODk1MDE5NSIgeT0iLTEuNDI4NTcxOTM5NDY4MzgzOCIgeD0iLTIiIHN0eWxlPSIiIGNsYXNzPSJiYWNrZ3JvdW5kIj48L3JlY3Q+PHRleHQgc3R5bGU9IiIgeT0iLTEwLjEiPjx0c3BhbiBkeT0iMS4xZW0iIHk9Ii0wLjFlbSIgeD0iMCIgY2xhc3M9InRleHQtb3V0ZXItdHNwYW4iPjx0c3BhbiBmb250LXdlaWdodD0ibm9ybWFsIiBjbGFzcz0idGV4dC1pbm5lci10c3BhbiIgZm9udC1zdHlsZT0ibm9ybWFsIj5ObzwvdHNwYW4+PC90c3Bhbj48L3RleHQ+PC9nPjwvZz48L2c+PGcgY2xhc3M9ImVkZ2VMYWJlbCI+PGcgdHJhbnNmb3JtPSJ0cmFuc2xhdGUoMCwgMCkiIGNsYXNzPSJsYWJlbCI+PHRleHQgeT0iLTEwLjEiPjx0c3BhbiBkeT0iMS4xZW0iIHk9Ii0wLjFlbSIgeD0iMCIgY2xhc3M9InRleHQtb3V0ZXItdHNwYW4iPjwvdHNwYW4+PC90ZXh0PjwvZz48L2c+PGcgdHJhbnNmb3JtPSJ0cmFuc2xhdGUoODI1LjE5ODY4MTM1NDUyMjcsIDM1MTIuNTk4MjQxODA2MDMwMykiIGNsYXNzPSJlZGdlTGFiZWwiPjxnIHRyYW5zZm9ybT0idHJhbnNsYXRlKC0xMy45NDAxOTEyNjg5MjA4OTgsIC0xMS40Mjg1NzE3MDEwNDk4MDUpIiBjbGFzcz0ibGFiZWwiPjxnPjxyZWN0IGhlaWdodD0iMjIuODU3MTQzNDAyMDk5NjEiIHdpZHRoPSIyNy44ODAzODA2MzA0OTMxNjQiIHk9Ii0xLjQyODU3MTkzOTQ2ODM4MzgiIHg9Ii0yLjg1NzE0Mjg2NTY1NzgwNjQiIHN0eWxlPSIiIGNsYXNzPSJiYWNrZ3JvdW5kIj48L3JlY3Q+PHRleHQgc3R5bGU9IiIgeT0iLTEwLjEiPjx0c3BhbiBkeT0iMS4xZW0iIHk9Ii0wLjFlbSIgeD0iMCIgY2xhc3M9InRleHQtb3V0ZXItdHNwYW4iPjx0c3BhbiBmb250LXdlaWdodD0ibm9ybWFsIiBjbGFzcz0idGV4dC1pbm5lci10c3BhbiIgZm9udC1zdHlsZT0ibm9ybWFsIj5ZZXM8L3RzcGFuPjwvdHNwYW4+PC90ZXh0PjwvZz48L2c+PC9nPjxnIHRyYW5zZm9ybT0idHJhbnNsYXRlKDQzNC43MTA5NTE4MDUxMTQ3NSwgMzUxMi41OTgyNDE4MDYwMzAzKSIgY2xhc3M9ImVkZ2VMYWJlbCI+PGcgdHJhbnNmb3JtPSJ0cmFuc2xhdGUoLTExLjM5NTA4OTE0OTQ3NTA5OCwgLTExLjQyODU3MTcwMTA0OTgwNSkiIGNsYXNzPSJsYWJlbCI+PGc+PHJlY3QgaGVpZ2h0PSIyMi44NTcxNDM0MDIwOTk2MSIgd2lkdGg9IjIyLjc5MDE3ODI5ODk1MDE5NSIgeT0iLTEuNDI4NTcxOTM5NDY4MzgzOCIgeD0iLTIiIHN0eWxlPSIiIGNsYXNzPSJiYWNrZ3JvdW5kIj48L3JlY3Q+PHRleHQgc3R5bGU9IiIgeT0iLTEwLjEiPjx0c3BhbiBkeT0iMS4xZW0iIHk9Ii0wLjFlbSIgeD0iMCIgY2xhc3M9InRleHQtb3V0ZXItdHNwYW4iPjx0c3BhbiBmb250LXdlaWdodD0ibm9ybWFsIiBjbGFzcz0idGV4dC1pbm5lci10c3BhbiIgZm9udC1zdHlsZT0ibm9ybWFsIj5ObzwvdHNwYW4+PC90c3Bhbj48L3RleHQ+PC9nPjwvZz48L2c+PGcgY2xhc3M9ImVkZ2VMYWJlbCI+PGcgdHJhbnNmb3JtPSJ0cmFuc2xhdGUoMCwgMCkiIGNsYXNzPSJsYWJlbCI+PHRleHQgeT0iLTEwLjEiPjx0c3BhbiBkeT0iMS4xZW0iIHk9Ii0wLjFlbSIgeD0iMCIgY2xhc3M9InRleHQtb3V0ZXItdHNwYW4iPjwvdHNwYW4+PC90ZXh0PjwvZz48L2c+PGcgY2xhc3M9ImVkZ2VMYWJlbCI+PGcgdHJhbnNmb3JtPSJ0cmFuc2xhdGUoMCwgMCkiIGNsYXNzPSJsYWJlbCI+PHRleHQgeT0iLTEwLjEiPjx0c3BhbiBkeT0iMS4xZW0iIHk9Ii0wLjFlbSIgeD0iMCIgY2xhc3M9InRleHQtb3V0ZXItdHNwYW4iPjwvdHNwYW4+PC90ZXh0PjwvZz48L2c+PGcgY2xhc3M9ImVkZ2VMYWJlbCI+PGcgdHJhbnNmb3JtPSJ0cmFuc2xhdGUoMCwgMCkiIGNsYXNzPSJsYWJlbCI+PHRleHQgeT0iLTEwLjEiPjx0c3BhbiBkeT0iMS4xZW0iIHk9Ii0wLjFlbSIgeD0iMCIgY2xhc3M9InRleHQtb3V0ZXItdHNwYW4iPjwvdHNwYW4+PC90ZXh0PjwvZz48L2c+PGcgdHJhbnNmb3JtPSJ0cmFuc2xhdGUoNzU0LjE5OTc5NTI0NjEyNDMsIDQyNDcuNDQ2NDc0MDc1MzE3KSIgY2xhc3M9ImVkZ2VMYWJlbCI+PGcgdHJhbnNmb3JtPSJ0cmFuc2xhdGUoLTEzLjk0MDE5MTI2ODkyMDg5OCwgLTExLjQyODU3MTcwMTA0OTgwNSkiIGNsYXNzPSJsYWJlbCI+PGc+PHJlY3QgaGVpZ2h0PSIyMi44NTcxNDM0MDIwOTk2MSIgd2lkdGg9IjI3Ljg4MDM4MDYzMDQ5MzE2NCIgeT0iLTEuNDI4NTcxOTM5NDY4MzgzOCIgeD0iLTIuODU3MTQyODY1NjU3ODA2NCIgc3R5bGU9IiIgY2xhc3M9ImJhY2tncm91bmQiPjwvcmVjdD48dGV4dCBzdHlsZT0iIiB5PSItMTAuMSI+PHRzcGFuIGR5PSIxLjFlbSIgeT0iLTAuMWVtIiB4PSIwIiBjbGFzcz0idGV4dC1vdXRlci10c3BhbiI+PHRzcGFuIGZvbnQtd2VpZ2h0PSJub3JtYWwiIGNsYXNzPSJ0ZXh0LWlubmVyLXRzcGFuIiBmb250LXN0eWxlPSJub3JtYWwiPlllczwvdHNwYW4+PC90c3Bhbj48L3RleHQ+PC9nPjwvZz48L2c+PGcgdHJhbnNmb3JtPSJ0cmFuc2xhdGUoOTkwLjE5NjQ1MzU3MTMxOTYsIDI3MjMuODQzNzY1MjU4Nzg5KSIgY2xhc3M9ImVkZ2VMYWJlbCI+PGcgdHJhbnNmb3JtPSJ0cmFuc2xhdGUoLTExLjM5NTA4OTE0OTQ3NTA5OCwgLTExLjQyODU3MTcwMTA0OTgwNSkiIGNsYXNzPSJsYWJlbCI+PGc+PHJlY3QgaGVpZ2h0PSIyMi44NTcxNDM0MDIwOTk2MSIgd2lkdGg9IjIyLjc5MDE3ODI5ODk1MDE5NSIgeT0iLTEuNDI4NTcxOTM5NDY4MzgzOCIgeD0iLTIiIHN0eWxlPSIiIGNsYXNzPSJiYWNrZ3JvdW5kIj48L3JlY3Q+PHRleHQgc3R5bGU9IiIgeT0iLTEwLjEiPjx0c3BhbiBkeT0iMS4xZW0iIHk9Ii0wLjFlbSIgeD0iMCIgY2xhc3M9InRleHQtb3V0ZXItdHNwYW4iPjx0c3BhbiBmb250LXdlaWdodD0ibm9ybWFsIiBjbGFzcz0idGV4dC1pbm5lci10c3BhbiIgZm9udC1zdHlsZT0ibm9ybWFsIj5ObzwvdHNwYW4+PC90c3Bhbj48L3RleHQ+PC9nPjwvZz48L2c+PGcgY2xhc3M9ImVkZ2VMYWJlbCI+PGcgdHJhbnNmb3JtPSJ0cmFuc2xhdGUoMCwgMCkiIGNsYXNzPSJsYWJlbCI+PHRleHQgeT0iLTEwLjEiPjx0c3BhbiBkeT0iMS4xZW0iIHk9Ii0wLjFlbSIgeD0iMCIgY2xhc3M9InRleHQtb3V0ZXItdHNwYW4iPjwvdHNwYW4+PC90ZXh0PjwvZz48L2c+PGcgY2xhc3M9ImVkZ2VMYWJlbCI+PGcgdHJhbnNmb3JtPSJ0cmFuc2xhdGUoMCwgMCkiIGNsYXNzPSJsYWJlbCI+PHRleHQgeT0iLTEwLjEiPjx0c3BhbiBkeT0iMS4xZW0iIHk9Ii0wLjFlbSIgeD0iMCIgY2xhc3M9InRleHQtb3V0ZXItdHNwYW4iPjwvdHNwYW4+PC90ZXh0PjwvZz48L2c+PGcgdHJhbnNmb3JtPSJ0cmFuc2xhdGUoMzA4LjMwNTgxMzMxMjUzMDUsIDI0OTIuNzk5MTE5OTQ5MzQxKSIgY2xhc3M9ImVkZ2VMYWJlbCI+PGcgdHJhbnNmb3JtPSJ0cmFuc2xhdGUoLTEzLjk0MDE5MTI2ODkyMDg5OCwgLTExLjQyODU3MTcwMTA0OTgwNSkiIGNsYXNzPSJsYWJlbCI+PGc+PHJlY3QgaGVpZ2h0PSIyMi44NTcxNDM0MDIwOTk2MSIgd2lkdGg9IjI3Ljg4MDM4MDYzMDQ5MzE2NCIgeT0iLTEuNDI4NTcxOTM5NDY4MzgzOCIgeD0iLTIuODU3MTQyODY1NjU3ODA2NCIgc3R5bGU9IiIgY2xhc3M9ImJhY2tncm91bmQiPjwvcmVjdD48dGV4dCBzdHlsZT0iIiB5PSItMTAuMSI+PHRzcGFuIGR5PSIxLjFlbSIgeT0iLTAuMWVtIiB4PSIwIiBjbGFzcz0idGV4dC1vdXRlci10c3BhbiI+PHRzcGFuIGZvbnQtd2VpZ2h0PSJub3JtYWwiIGNsYXNzPSJ0ZXh0LWlubmVyLXRzcGFuIiBmb250LXN0eWxlPSJub3JtYWwiPlllczwvdHNwYW4+PC90c3Bhbj48L3RleHQ+PC9nPjwvZz48L2c+PGcgdHJhbnNmb3JtPSJ0cmFuc2xhdGUoMTMxLjkxMjk1MTk0NjI1ODU0LCAyNTU2LjIyNzY5MTY1MDM5MDYpIiBjbGFzcz0iZWRnZUxhYmVsIj48ZyB0cmFuc2Zvcm09InRyYW5zbGF0ZSgtMTEuMzk1MDg5MTQ5NDc1MDk4LCAtMTEuNDI4NTcxNzAxMDQ5ODA1KSIgY2xhc3M9ImxhYmVsIj48Zz48cmVjdCBoZWlnaHQ9IjIyLjg1NzE0MzQwMjA5OTYxIiB3aWR0aD0iMjIuNzkwMTc4Mjk4OTUwMTk1IiB5PSItMS40Mjg1NzE5Mzk0NjgzODM4IiB4PSItMiIgc3R5bGU9IiIgY2xhc3M9ImJhY2tncm91bmQiPjwvcmVjdD48dGV4dCBzdHlsZT0iIiB5PSItMTAuMSI+PHRzcGFuIGR5PSIxLjFlbSIgeT0iLTAuMWVtIiB4PSIwIiBjbGFzcz0idGV4dC1vdXRlci10c3BhbiI+PHRzcGFuIGZvbnQtd2VpZ2h0PSJub3JtYWwiIGNsYXNzPSJ0ZXh0LWlubmVyLXRzcGFuIiBmb250LXN0eWxlPSJub3JtYWwiPk5vPC90c3Bhbj48L3RzcGFuPjwvdGV4dD48L2c+PC9nPjwvZz48ZyBjbGFzcz0iZWRnZUxhYmVsIj48ZyB0cmFuc2Zvcm09InRyYW5zbGF0ZSgwLCAwKSIgY2xhc3M9ImxhYmVsIj48dGV4dCB5PSItMTAuMSI+PHRzcGFuIGR5PSIxLjFlbSIgeT0iLTAuMWVtIiB4PSIwIiBjbGFzcz0idGV4dC1vdXRlci10c3BhbiI+PC90c3Bhbj48L3RleHQ+PC9nPjwvZz48ZyBjbGFzcz0iZWRnZUxhYmVsIj48ZyB0cmFuc2Zvcm09InRyYW5zbGF0ZSgwLCAwKSIgY2xhc3M9ImxhYmVsIj48dGV4dCB5PSItMTAuMSI+PHRzcGFuIGR5PSIxLjFlbSIgeT0iLTAuMWVtIiB4PSIwIiBjbGFzcz0idGV4dC1vdXRlci10c3BhbiI+PC90c3Bhbj48L3RleHQ+PC9nPjwvZz48L2c+PGcgY2xhc3M9Im5vZGVzIj48ZyB0cmFuc2Zvcm09InRyYW5zbGF0ZSgyODMuMjUyMjM5MjI3Mjk0OSwgMzUpIiBpZD0iZmxvd2NoYXJ0LUEtMiIgY2xhc3M9Im5vZGUgZGVmYXVsdCI+PHJlY3QgaGVpZ2h0PSI1NCIgd2lkdGg9IjE1Mi4zODM5MjYzOTE2MDE1NiIgeT0iLTI3IiB4PSItNzYuMTkxOTYzMTk1ODAwNzgiIHN0eWxlPSIiIGNsYXNzPSJiYXNpYyBsYWJlbC1jb250YWluZXIiPjwvcmVjdD48ZyB0cmFuc2Zvcm09InRyYW5zbGF0ZSgtNDYuMTkxOTYzMTk1ODAwNzgsIC0xMikiIHN0eWxlPSIiIGNsYXNzPSJsYWJlbCI+PHJlY3Q+PC9yZWN0Pjxmb3JlaWduT2JqZWN0IGhlaWdodD0iMjQiIHdpZHRoPSI5Mi4zODM5MjYzOTE2MDE1NiI+PGRpdiBzdHlsZT0iZGlzcGxheTogdGFibGUtY2VsbDsgd2hpdGUtc3BhY2U6IG5vd3JhcDsgbGluZS1oZWlnaHQ6IDEuNTsgbWF4LXdpZHRoOiAyMDBweDsgdGV4dC1hbGlnbjogY2VudGVyOyIgeG1sbnM9Imh0dHA6Ly93d3cudzMub3JnLzE5OTkveGh0bWwiPjxzcGFuIGNsYXNzPSJub2RlTGFiZWwiPjxwPlN0YXJ0IFByb2Nlc3M8L3A+PC9zcGFuPjwvZGl2PjwvZm9yZWlnbk9iamVjdD48L2c+PC9nPjxnIHRyYW5zZm9ybT0idHJhbnNsYXRlKDI4My4yNTIyMzkyMjcyOTQ5LCAxMzkpIiBpZD0iZmxvd2NoYXJ0LUItMyIgY2xhc3M9Im5vZGUgZGVmYXVsdCI+PHJlY3QgaGVpZ2h0PSI1NCIgd2lkdGg9IjI1OS45OTU1NDQ0MzM1OTM3NSIgeT0iLTI3IiB4PSItMTI5Ljk5Nzc3MjIxNjc5Njg4IiBzdHlsZT0iIiBjbGFzcz0iYmFzaWMgbGFiZWwtY29udGFpbmVyIj48L3JlY3Q+PGcgdHJhbnNmb3JtPSJ0cmFuc2xhdGUoLTk5Ljk5Nzc3MjIxNjc5Njg4LCAtMTIpIiBzdHlsZT0iIiBjbGFzcz0ibGFiZWwiPjxyZWN0PjwvcmVjdD48Zm9yZWlnbk9iamVjdCBoZWlnaHQ9IjI0IiB3aWR0aD0iMTk5Ljk5NTU0NDQzMzU5Mzc1Ij48ZGl2IHN0eWxlPSJkaXNwbGF5OiB0YWJsZS1jZWxsOyB3aGl0ZS1zcGFjZTogbm93cmFwOyBsaW5lLWhlaWdodDogMS41OyBtYXgtd2lkdGg6IDIwMHB4OyB0ZXh0LWFsaWduOiBjZW50ZXI7IiB4bWxucz0iaHR0cDovL3d3dy53My5vcmcvMTk5OS94aHRtbCI+PHNwYW4gY2xhc3M9Im5vZGVMYWJlbCI+PHA+R2V0IFBlbmRpbmcgVGFzayBmcm9tIERCIG1pc3Npb24gaWQ8L3A+PC9zcGFuPjwvZGl2PjwvZm9yZWlnbk9iamVjdD48L2c+PC9nPjxnIHRyYW5zZm9ybT0idHJhbnNsYXRlKDI4My4yNTIyMzkyMjcyOTQ5LCAyODMuOTA4NDc3NzgzMjAzMSkiIGlkPSJmbG93Y2hhcnQtQy00IiBjbGFzcz0ibm9kZSBkZWZhdWx0Ij48cG9seWdvbiB0cmFuc2Zvcm09InRyYW5zbGF0ZSgtNjcuOTA4NDc3NzgzMjAzMTIsNjcuOTA4NDc3NzgzMjAzMTIpIiBjbGFzcz0ibGFiZWwtY29udGFpbmVyIiBwb2ludHM9IjY3LjkwODQ3Nzc4MzIwMzEyLDAgMTM1LjgxNjk1NTU2NjQwNjI1LC02Ny45MDg0Nzc3ODMyMDMxMiA2Ny45MDg0Nzc3ODMyMDMxMiwtMTM1LjgxNjk1NTU2NjQwNjI1IDAsLTY3LjkwODQ3Nzc4MzIwMzEyIj48L3BvbHlnb24+PGcgdHJhbnNmb3JtPSJ0cmFuc2xhdGUoLTQwLjkwODQ3Nzc4MzIwMzEyNSwgLTEyKSIgc3R5bGU9IiIgY2xhc3M9ImxhYmVsIj48cmVjdD48L3JlY3Q+PGZvcmVpZ25PYmplY3QgaGVpZ2h0PSIyNCIgd2lkdGg9IjgxLjgxNjk1NTU2NjQwNjI1Ij48ZGl2IHN0eWxlPSJkaXNwbGF5OiB0YWJsZS1jZWxsOyB3aGl0ZS1zcGFjZTogbm93cmFwOyBsaW5lLWhlaWdodDogMS41OyBtYXgtd2lkdGg6IDIwMHB4OyB0ZXh0LWFsaWduOiBjZW50ZXI7IiB4bWxucz0iaHR0cDovL3d3dy53My5vcmcvMTk5OS94aHRtbCI+PHNwYW4gY2xhc3M9Im5vZGVMYWJlbCI+PHA+VGFzayBmb3VuZD88L3A+PC9zcGFuPjwvZGl2PjwvZm9yZWlnbk9iamVjdD48L2c+PC9nPjxnIHRyYW5zZm9ybT0idHJhbnNsYXRlKDEzNy45OTc3NzIyMTY3OTY4OCwgNDUxLjY3NDA5ODk2ODUwNTg2KSIgaWQ9ImZsb3djaGFydC1ELTUiIGNsYXNzPSJub2RlIGRlZmF1bHQiPjxyZWN0IGhlaWdodD0iNTQiIHdpZHRoPSIyNTkuOTk1NTQ0NDMzNTkzNzUiIHk9Ii0yNyIgeD0iLTEyOS45OTc3NzIyMTY3OTY4OCIgc3R5bGU9IiIgY2xhc3M9ImJhc2ljIGxhYmVsLWNvbnRhaW5lciI+PC9yZWN0PjxnIHRyYW5zZm9ybT0idHJhbnNsYXRlKC05OS45OTc3NzIyMTY3OTY4OCwgLTEyKSIgc3R5bGU9IiIgY2xhc3M9ImxhYmVsIj48cmVjdD48L3JlY3Q+PGZvcmVpZ25PYmplY3QgaGVpZ2h0PSIyNCIgd2lkdGg9IjE5OS45OTU1NDQ0MzM1OTM3NSI+PGRpdiBzdHlsZT0iZGlzcGxheTogdGFibGUtY2VsbDsgd2hpdGUtc3BhY2U6IG5vd3JhcDsgbGluZS1oZWlnaHQ6IDEuNTsgbWF4LXdpZHRoOiAyMDBweDsgdGV4dC1hbGlnbjogY2VudGVyOyIgeG1sbnM9Imh0dHA6Ly93d3cudzMub3JnLzE5OTkveGh0bWwiPjxzcGFuIGNsYXNzPSJub2RlTGFiZWwiPjxwPkRpc3BsYXkgTm8gcGVuZGluZyB0YXNrcyBhbmQgd2FpdCAxMCBzZWNvbmRzPC9wPjwvc3Bhbj48L2Rpdj48L2ZvcmVpZ25PYmplY3Q+PC9nPjwvZz48ZyB0cmFuc2Zvcm09InRyYW5zbGF0ZSg0MjguNTA2NzA2MjM3NzkyOTcsIDQ1MS42NzQwOTg5Njg1MDU4NikiIGlkPSJmbG93Y2hhcnQtRS02IiBjbGFzcz0ibm9kZSBkZWZhdWx0Ij48cmVjdCBoZWlnaHQ9IjU0IiB3aWR0aD0iMjIxLjAyMjMyMzYwODM5ODQ0IiB5PSItMjciIHg9Ii0xMTAuNTExMTYxODA0MTk5MjIiIHN0eWxlPSIiIGNsYXNzPSJiYXNpYyBsYWJlbC1jb250YWluZXIiPjwvcmVjdD48ZyB0cmFuc2Zvcm09InRyYW5zbGF0ZSgtODAuNTExMTYxODA0MTk5MjIsIC0xMikiIHN0eWxlPSIiIGNsYXNzPSJsYWJlbCI+PHJlY3Q+PC9yZWN0Pjxmb3JlaWduT2JqZWN0IGhlaWdodD0iMjQiIHdpZHRoPSIxNjEuMDIyMzIzNjA4Mzk4NDQiPjxkaXYgc3R5bGU9ImRpc3BsYXk6IHRhYmxlLWNlbGw7IHdoaXRlLXNwYWNlOiBub3dyYXA7IGxpbmUtaGVpZ2h0OiAxLjU7IG1heC13aWR0aDogMjAwcHg7IHRleHQtYWxpZ246IGNlbnRlcjsiIHhtbG5zPSJodHRwOi8vd3d3LnczLm9yZy8xOTk5L3hodG1sIj48c3BhbiBjbGFzcz0ibm9kZUxhYmVsIj48cD5TZXQgbWlzc2lvbiBpZCBmcm9tIERCPC9wPjwvc3Bhbj48L2Rpdj48L2ZvcmVpZ25PYmplY3Q+PC9nPjwvZz48ZyB0cmFuc2Zvcm09InRyYW5zbGF0ZSg0MjguNTA2NzA2MjM3NzkyOTcsIDU1NS42NzQwOTg5Njg1MDU5KSIgaWQ9ImZsb3djaGFydC1GLTciIGNsYXNzPSJub2RlIGRlZmF1bHQiPjxyZWN0IGhlaWdodD0iNTQiIHdpZHRoPSIxOTkuMjE4NzUiIHk9Ii0yNyIgeD0iLTk5LjYwOTM3NSIgc3R5bGU9IiIgY2xhc3M9ImJhc2ljIGxhYmVsLWNvbnRhaW5lciI+PC9yZWN0PjxnIHRyYW5zZm9ybT0idHJhbnNsYXRlKC02OS42MDkzNzUsIC0xMikiIHN0eWxlPSIiIGNsYXNzPSJsYWJlbCI+PHJlY3Q+PC9yZWN0Pjxmb3JlaWduT2JqZWN0IGhlaWdodD0iMjQiIHdpZHRoPSIxMzkuMjE4NzUiPjxkaXYgc3R5bGU9ImRpc3BsYXk6IHRhYmxlLWNlbGw7IHdoaXRlLXNwYWNlOiBub3dyYXA7IGxpbmUtaGVpZ2h0OiAxLjU7IG1heC13aWR0aDogMjAwcHg7IHRleHQtYWxpZ246IGNlbnRlcjsiIHhtbG5zPSJodHRwOi8vd3d3LnczLm9yZy8xOTk5L3hodG1sIj48c3BhbiBjbGFzcz0ibm9kZUxhYmVsIj48cD5Mb2cgdGFzayBzdGFydCBpbiBEQjwvcD48L3NwYW4+PC9kaXY+PC9mb3JlaWduT2JqZWN0PjwvZz48L2c+PGcgdHJhbnNmb3JtPSJ0cmFuc2xhdGUoNDI4LjUwNjcwNjIzNzc5Mjk3LCA2NTkuNjc0MDk4OTY4NTA1OSkiIGlkPSJmbG93Y2hhcnQtRy04IiBjbGFzcz0ibm9kZSBkZWZhdWx0Ij48cmVjdCBoZWlnaHQ9IjU0IiB3aWR0aD0iMjU5Ljk5NTU0NDQzMzU5Mzc1IiB5PSItMjciIHg9Ii0xMjkuOTk3NzcyMjE2Nzk2ODgiIHN0eWxlPSIiIGNsYXNzPSJiYXNpYyBsYWJlbC1jb250YWluZXIiPjwvcmVjdD48ZyB0cmFuc2Zvcm09InRyYW5zbGF0ZSgtOTkuOTk3NzcyMjE2Nzk2ODgsIC0xMikiIHN0eWxlPSIiIGNsYXNzPSJsYWJlbCI+PHJlY3Q+PC9yZWN0Pjxmb3JlaWduT2JqZWN0IGhlaWdodD0iMjQiIHdpZHRoPSIxOTkuOTk1NTQ0NDMzNTkzNzUiPjxkaXYgc3R5bGU9ImRpc3BsYXk6IHRhYmxlLWNlbGw7IHdoaXRlLXNwYWNlOiBub3dyYXA7IGxpbmUtaGVpZ2h0OiAxLjU7IG1heC13aWR0aDogMjAwcHg7IHRleHQtYWxpZ246IGNlbnRlcjsiIHhtbG5zPSJodHRwOi8vd3d3LnczLm9yZy8xOTk5L3hodG1sIj48c3BhbiBjbGFzcz0ibm9kZUxhYmVsIj48cD5DbGVhciBwcmV2aW91cyBjYWxsYmFjayByZXNwb25zZTwvcD48L3NwYW4+PC9kaXY+PC9mb3JlaWduT2JqZWN0PjwvZz48L2c+PGcgdHJhbnNmb3JtPSJ0cmFuc2xhdGUoNDI4LjUwNjcwNjIzNzc5Mjk3LCA3NjMuNjc0MDk4OTY4NTA1OSkiIGlkPSJmbG93Y2hhcnQtSC05IiBjbGFzcz0ibm9kZSBkZWZhdWx0Ij48cmVjdCBoZWlnaHQ9IjU0IiB3aWR0aD0iMjU5Ljk5NTU0NDQzMzU5Mzc1IiB5PSItMjciIHg9Ii0xMjkuOTk3NzcyMjE2Nzk2ODgiIHN0eWxlPSIiIGNsYXNzPSJiYXNpYyBsYWJlbC1jb250YWluZXIiPjwvcmVjdD48ZyB0cmFuc2Zvcm09InRyYW5zbGF0ZSgtOTkuOTk3NzcyMjE2Nzk2ODgsIC0xMikiIHN0eWxlPSIiIGNsYXNzPSJsYWJlbCI+PHJlY3Q+PC9yZWN0Pjxmb3JlaWduT2JqZWN0IGhlaWdodD0iMjQiIHdpZHRoPSIxOTkuOTk1NTQ0NDMzNTkzNzUiPjxkaXYgc3R5bGU9ImRpc3BsYXk6IHRhYmxlLWNlbGw7IHdoaXRlLXNwYWNlOiBub3dyYXA7IGxpbmUtaGVpZ2h0OiAxLjU7IG1heC13aWR0aDogMjAwcHg7IHRleHQtYWxpZ246IGNlbnRlcjsiIHhtbG5zPSJodHRwOi8vd3d3LnczLm9yZy8xOTk5L3hodG1sIj48c3BhbiBjbGFzcz0ibm9kZUxhYmVsIj48cD5EaXNhYmxlIHNtYXJ0IGNoYXJnZSB2aWEgQVBJIHNldFNtYXJ0Q2hhcmdlT2ZmPC9wPjwvc3Bhbj48L2Rpdj48L2ZvcmVpZ25PYmplY3Q+PC9nPjwvZz48ZyB0cmFuc2Zvcm09InRyYW5zbGF0ZSg0MjguNTA2NzA2MjM3NzkyOTcsIDg2Ny42NzQwOTg5Njg1MDU5KSIgaWQ9ImZsb3djaGFydC1JLTEwIiBjbGFzcz0ibm9kZSBkZWZhdWx0Ij48cmVjdCBoZWlnaHQ9IjU0IiB3aWR0aD0iMjU5Ljk5NTU0NDQzMzU5Mzc1IiB5PSItMjciIHg9Ii0xMjkuOTk3NzcyMjE2Nzk2ODgiIHN0eWxlPSIiIGNsYXNzPSJiYXNpYyBsYWJlbC1jb250YWluZXIiPjwvcmVjdD48ZyB0cmFuc2Zvcm09InRyYW5zbGF0ZSgtOTkuOTk3NzcyMjE2Nzk2ODgsIC0xMikiIHN0eWxlPSIiIGNsYXNzPSJsYWJlbCI+PHJlY3Q+PC9yZWN0Pjxmb3JlaWduT2JqZWN0IGhlaWdodD0iMjQiIHdpZHRoPSIxOTkuOTk1NTQ0NDMzNTkzNzUiPjxkaXYgc3R5bGU9ImRpc3BsYXk6IHRhYmxlLWNlbGw7IHdoaXRlLXNwYWNlOiBub3dyYXA7IGxpbmUtaGVpZ2h0OiAxLjU7IG1heC13aWR0aDogMjAwcHg7IHRleHQtYWxpZ246IGNlbnRlcjsiIHhtbG5zPSJodHRwOi8vd3d3LnczLm9yZy8xOTk5L3hodG1sIj48c3BhbiBjbGFzcz0ibm9kZUxhYmVsIj48cD5DYWxsIE1pc3Npb25Xb3JrcyBBUEkgd2l0aCBtaXNzaW9uIGlkLCBtaXNzaW9uIGNvZGUsIHJ1bnRpbWUgcGFyYW0sIGNhbGxiYWNrIHVybDwvcD48L3NwYW4+PC9kaXY+PC9mb3JlaWduT2JqZWN0PjwvZz48L2c+PGcgdHJhbnNmb3JtPSJ0cmFuc2xhdGUoNDI4LjUwNjcwNjIzNzc5Mjk3LCA5NzEuNjc0MDk4OTY4NTA1OSkiIGlkPSJmbG93Y2hhcnQtSi0xMSIgY2xhc3M9Im5vZGUgZGVmYXVsdCI+PHJlY3QgaGVpZ2h0PSI1NCIgd2lkdGg9IjI1OS45OTU1NDQ0MzM1OTM3NSIgeT0iLTI3IiB4PSItMTI5Ljk5Nzc3MjIxNjc5Njg4IiBzdHlsZT0iIiBjbGFzcz0iYmFzaWMgbGFiZWwtY29udGFpbmVyIj48L3JlY3Q+PGcgdHJhbnNmb3JtPSJ0cmFuc2xhdGUoLTk5Ljk5Nzc3MjIxNjc5Njg4LCAtMTIpIiBzdHlsZT0iIiBjbGFzcz0ibGFiZWwiPjxyZWN0PjwvcmVjdD48Zm9yZWlnbk9iamVjdCBoZWlnaHQ9IjI0IiB3aWR0aD0iMTk5Ljk5NTU0NDQzMzU5Mzc1Ij48ZGl2IHN0eWxlPSJkaXNwbGF5OiB0YWJsZS1jZWxsOyB3aGl0ZS1zcGFjZTogbm93cmFwOyBsaW5lLWhlaWdodDogMS41OyBtYXgtd2lkdGg6IDIwMHB4OyB0ZXh0LWFsaWduOiBjZW50ZXI7IiB4bWxucz0iaHR0cDovL3d3dy53My5vcmcvMTk5OS94aHRtbCI+PHNwYW4gY2xhc3M9Im5vZGVMYWJlbCI+PHA+RXh0cmFjdCBydW50aW1lIGlkIGZyb20gcmVzcG9uc2U8L3A+PC9zcGFuPjwvZGl2PjwvZm9yZWlnbk9iamVjdD48L2c+PC9nPjxnIHRyYW5zZm9ybT0idHJhbnNsYXRlKDQyOC41MDY3MDYyMzc3OTI5NywgMTE1MC4wNTEzMzQzODExMDM1KSIgaWQ9ImZsb3djaGFydC1LLTEyIiBjbGFzcz0ibm9kZSBkZWZhdWx0Ij48cG9seWdvbiB0cmFuc2Zvcm09InRyYW5zbGF0ZSgtMTAxLjM3NzIzNTQxMjU5NzY2LDEwMS4zNzcyMzU0MTI1OTc2NikiIGNsYXNzPSJsYWJlbC1jb250YWluZXIiIHBvaW50cz0iMTAxLjM3NzIzNTQxMjU5NzY2LDAgMjAyLjc1NDQ3MDgyNTE5NTMsLTEwMS4zNzcyMzU0MTI1OTc2NiAxMDEuMzc3MjM1NDEyNTk3NjYsLTIwMi43NTQ0NzA4MjUxOTUzIDAsLTEwMS4zNzcyMzU0MTI1OTc2NiI+PC9wb2x5Z29uPjxnIHRyYW5zZm9ybT0idHJhbnNsYXRlKC03NC4zNzcyMzU0MTI1OTc2NiwgLTEyKSIgc3R5bGU9IiIgY2xhc3M9ImxhYmVsIj48cmVjdD48L3JlY3Q+PGZvcmVpZ25PYmplY3QgaGVpZ2h0PSIyNCIgd2lkdGg9IjE0OC43NTQ0NzA4MjUxOTUzIj48ZGl2IHN0eWxlPSJkaXNwbGF5OiB0YWJsZS1jZWxsOyB3aGl0ZS1zcGFjZTogbm93cmFwOyBsaW5lLWhlaWdodDogMS41OyBtYXgtd2lkdGg6IDIwMHB4OyB0ZXh0LWFsaWduOiBjZW50ZXI7IiB4bWxucz0iaHR0cDovL3d3dy53My5vcmcvMTk5OS94aHRtbCI+PHNwYW4gY2xhc3M9Im5vZGVMYWJlbCI+PHA+cnVudGltZSBpZCBvYnRhaW5lZD88L3A+PC9zcGFuPjwvZGl2PjwvZm9yZWlnbk9iamVjdD48L2c+PC9nPjxnIHRyYW5zZm9ybT0idHJhbnNsYXRlKDUxMS4wMDU1OTIzNDYxOTE0LCAxMzUxLjI4NTcxMzE5NTgwMDgpIiBpZD0iZmxvd2NoYXJ0LUwtMTMiIGNsYXNzPSJub2RlIGRlZmF1bHQiPjxyZWN0IGhlaWdodD0iNTQiIHdpZHRoPSIyNTkuOTk1NTQ0NDMzNTkzNzUiIHk9Ii0yNyIgeD0iLTEyOS45OTc3NzIyMTY3OTY4OCIgc3R5bGU9IiIgY2xhc3M9ImJhc2ljIGxhYmVsLWNvbnRhaW5lciI+PC9yZWN0PjxnIHRyYW5zZm9ybT0idHJhbnNsYXRlKC05OS45OTc3NzIyMTY3OTY4OCwgLTEyKSIgc3R5bGU9IiIgY2xhc3M9ImxhYmVsIj48cmVjdD48L3JlY3Q+PGZvcmVpZ25PYmplY3QgaGVpZ2h0PSIyNCIgd2lkdGg9IjE5OS45OTU1NDQ0MzM1OTM3NSI+PGRpdiBzdHlsZT0iZGlzcGxheTogdGFibGUtY2VsbDsgd2hpdGUtc3BhY2U6IG5vd3JhcDsgbGluZS1oZWlnaHQ6IDEuNTsgbWF4LXdpZHRoOiAyMDBweDsgdGV4dC1hbGlnbjogY2VudGVyOyIgeG1sbnM9Imh0dHA6Ly93d3cudzMub3JnLzE5OTkveGh0bWwiPjxzcGFuIGNsYXNzPSJub2RlTGFiZWwiPjxwPlN0b3JlIHJ1bnRpbWUgaWQgaW4gZ2xvYmFsIG1hcHBpbmcgbWlzc2lvbiBpZCAtJmd0OyBydW50aW1lIGlkPC9wPjwvc3Bhbj48L2Rpdj48L2ZvcmVpZ25PYmplY3Q+PC9nPjwvZz48ZyB0cmFuc2Zvcm09InRyYW5zbGF0ZSg1MTEuMDA1NTkyMzQ2MTkxNCwgMTQ1NS4yODU3MTMxOTU4MDA4KSIgaWQ9ImZsb3djaGFydC1NLTE0IiBjbGFzcz0ibm9kZSBkZWZhdWx0Ij48cmVjdCBoZWlnaHQ9IjU0IiB3aWR0aD0iMjQzLjQ2ODc1IiB5PSItMjciIHg9Ii0xMjEuNzM0Mzc1IiBzdHlsZT0iIiBjbGFzcz0iYmFzaWMgbGFiZWwtY29udGFpbmVyIj48L3JlY3Q+PGcgdHJhbnNmb3JtPSJ0cmFuc2xhdGUoLTkxLjczNDM3NSwgLTEyKSIgc3R5bGU9IiIgY2xhc3M9ImxhYmVsIj48cmVjdD48L3JlY3Q+PGZvcmVpZ25PYmplY3QgaGVpZ2h0PSIyNCIgd2lkdGg9IjE4My40Njg3NSI+PGRpdiBzdHlsZT0iZGlzcGxheTogdGFibGUtY2VsbDsgd2hpdGUtc3BhY2U6IG5vd3JhcDsgbGluZS1oZWlnaHQ6IDEuNTsgbWF4LXdpZHRoOiAyMDBweDsgdGV4dC1hbGlnbjogY2VudGVyOyIgeG1sbnM9Imh0dHA6Ly93d3cudzMub3JnLzE5OTkveGh0bWwiPjxzcGFuIGNsYXNzPSJub2RlTGFiZWwiPjxwPkVudGVyIHRhc2sgZXhlY3V0aW9uIGxvb3A8L3A+PC9zcGFuPjwvZGl2PjwvZm9yZWlnbk9iamVjdD48L2c+PC9nPjxnIHRyYW5zZm9ybT0idHJhbnNsYXRlKDUxMS4wMDU1OTIzNDYxOTE0LCAxNTU5LjI4NTcxMzE5NTgwMDgpIiBpZD0iZmxvd2NoYXJ0LU4tMTUiIGNsYXNzPSJub2RlIGRlZmF1bHQiPjxyZWN0IGhlaWdodD0iNTQiIHdpZHRoPSIxNzQuMjgxMjUiIHk9Ii0yNyIgeD0iLTg3LjE0MDYyNSIgc3R5bGU9IiIgY2xhc3M9ImJhc2ljIGxhYmVsLWNvbnRhaW5lciI+PC9yZWN0PjxnIHRyYW5zZm9ybT0idHJhbnNsYXRlKC01Ny4xNDA2MjUsIC0xMikiIHN0eWxlPSIiIGNsYXNzPSJsYWJlbCI+PHJlY3Q+PC9yZWN0Pjxmb3JlaWduT2JqZWN0IGhlaWdodD0iMjQiIHdpZHRoPSIxMTQuMjgxMjUiPjxkaXYgc3R5bGU9ImRpc3BsYXk6IHRhYmxlLWNlbGw7IHdoaXRlLXNwYWNlOiBub3dyYXA7IGxpbmUtaGVpZ2h0OiAxLjU7IG1heC13aWR0aDogMjAwcHg7IHRleHQtYWxpZ246IGNlbnRlcjsiIHhtbG5zPSJodHRwOi8vd3d3LnczLm9yZy8xOTk5L3hodG1sIj48c3BhbiBjbGFzcz0ibm9kZUxhYmVsIj48cD5XYWl0IDEwIHNlY29uZHM8L3A+PC9zcGFuPjwvZGl2PjwvZm9yZWlnbk9iamVjdD48L2c+PC9nPjxnIHRyYW5zZm9ybT0idHJhbnNsYXRlKDQyOC41MDY3MDYyMzc3OTI5NywgMTY2My4yODU3MTMxOTU4MDA4KSIgaWQ9ImZsb3djaGFydC1PLTE2IiBjbGFzcz0ibm9kZSBkZWZhdWx0Ij48cmVjdCBoZWlnaHQ9IjU0IiB3aWR0aD0iMjU5Ljk5NTU0NDQzMzU5Mzc1IiB5PSItMjciIHg9Ii0xMjkuOTk3NzcyMjE2Nzk2ODgiIHN0eWxlPSIiIGNsYXNzPSJiYXNpYyBsYWJlbC1jb250YWluZXIiPjwvcmVjdD48ZyB0cmFuc2Zvcm09InRyYW5zbGF0ZSgtOTkuOTk3NzcyMjE2Nzk2ODgsIC0xMikiIHN0eWxlPSIiIGNsYXNzPSJsYWJlbCI+PHJlY3Q+PC9yZWN0Pjxmb3JlaWduT2JqZWN0IGhlaWdodD0iMjQiIHdpZHRoPSIxOTkuOTk1NTQ0NDMzNTkzNzUiPjxkaXYgc3R5bGU9ImRpc3BsYXk6IHRhYmxlLWNlbGw7IHdoaXRlLXNwYWNlOiBub3dyYXA7IGxpbmUtaGVpZ2h0OiAxLjU7IG1heC13aWR0aDogMjAwcHg7IHRleHQtYWxpZ246IGNlbnRlcjsiIHhtbG5zPSJodHRwOi8vd3d3LnczLm9yZy8xOTk5L3hodG1sIj48c3BhbiBjbGFzcz0ibm9kZUxhYmVsIj48cD5HZXQgY2FsbGJhY2sgcmVzcG9uc2UgdXNpbmcgcnVudGltZSBpZDwvcD48L3NwYW4+PC9kaXY+PC9mb3JlaWduT2JqZWN0PjwvZz48L2c+PGcgdHJhbnNmb3JtPSJ0cmFuc2xhdGUoNDI4LjUwNjcwNjIzNzc5Mjk3LCAxODY3LjI4MzQ4NTQxMjU5NzcpIiBpZD0iZmxvd2NoYXJ0LVAtMTciIGNsYXNzPSJub2RlIGRlZmF1bHQiPjxwb2x5Z29uIHRyYW5zZm9ybT0idHJhbnNsYXRlKC0xMjYuOTk3NzcyMjE2Nzk2ODgsMTI2Ljk5Nzc3MjIxNjc5Njg4KSIgY2xhc3M9ImxhYmVsLWNvbnRhaW5lciIgcG9pbnRzPSIxMjYuOTk3NzcyMjE2Nzk2ODgsMCAyNTMuOTk1NTQ0NDMzNTkzNzUsLTEyNi45OTc3NzIyMTY3OTY4OCAxMjYuOTk3NzcyMjE2Nzk2ODgsLTI1My45OTU1NDQ0MzM1OTM3NSAwLC0xMjYuOTk3NzcyMjE2Nzk2ODgiPjwvcG9seWdvbj48ZyB0cmFuc2Zvcm09InRyYW5zbGF0ZSgtOTkuOTk3NzcyMjE2Nzk2ODgsIC0xMikiIHN0eWxlPSIiIGNsYXNzPSJsYWJlbCI+PHJlY3Q+PC9yZWN0Pjxmb3JlaWduT2JqZWN0IGhlaWdodD0iMjQiIHdpZHRoPSIxOTkuOTk1NTQ0NDMzNTkzNzUiPjxkaXYgc3R5bGU9ImRpc3BsYXk6IHRhYmxlLWNlbGw7IHdoaXRlLXNwYWNlOiBub3dyYXA7IGxpbmUtaGVpZ2h0OiAxLjU7IG1heC13aWR0aDogMjAwcHg7IHRleHQtYWxpZ246IGNlbnRlcjsiIHhtbG5zPSJodHRwOi8vd3d3LnczLm9yZy8xOTk5L3hodG1sIj48c3BhbiBjbGFzcz0ibm9kZUxhYmVsIj48cD5JcyBjYWxsYmFjayByZXNwb25zZSBTdWNjZXNzPzwvcD48L3NwYW4+PC9kaXY+PC9mb3JlaWduT2JqZWN0PjwvZz48L2c+PGcgdHJhbnNmb3JtPSJ0cmFuc2xhdGUoMjMwLjEwOTM4MjYyOTM5NDUzLCAyMDk0LjEzODQwMTAzMTQ5NCkiIGlkPSJmbG93Y2hhcnQtUS0xOCIgY2xhc3M9Im5vZGUgZGVmYXVsdCI+PHJlY3QgaGVpZ2h0PSI1NCIgd2lkdGg9IjI1OS45OTU1NDQ0MzM1OTM3NSIgeT0iLTI3IiB4PSItMTI5Ljk5Nzc3MjIxNjc5Njg4IiBzdHlsZT0iIiBjbGFzcz0iYmFzaWMgbGFiZWwtY29udGFpbmVyIj48L3JlY3Q+PGcgdHJhbnNmb3JtPSJ0cmFuc2xhdGUoLTk5Ljk5Nzc3MjIxNjc5Njg4LCAtMTIpIiBzdHlsZT0iIiBjbGFzcz0ibGFiZWwiPjxyZWN0PjwvcmVjdD48Zm9yZWlnbk9iamVjdCBoZWlnaHQ9IjI0IiB3aWR0aD0iMTk5Ljk5NTU0NDQzMzU5Mzc1Ij48ZGl2IHN0eWxlPSJkaXNwbGF5OiB0YWJsZS1jZWxsOyB3aGl0ZS1zcGFjZTogbm93cmFwOyBsaW5lLWhlaWdodDogMS41OyBtYXgtd2lkdGg6IDIwMHB4OyB0ZXh0LWFsaWduOiBjZW50ZXI7IiB4bWxucz0iaHR0cDovL3d3dy53My5vcmcvMTk5OS94aHRtbCI+PHNwYW4gY2xhc3M9Im5vZGVMYWJlbCI+PHA+VXBkYXRlIHRhc2sgc3RhdHVzIHRvIENPTVBMRVRFRCBpbiBEQiBhbmQgbG9nIGNvbXBsZXRpb248L3A+PC9zcGFuPjwvZGl2PjwvZm9yZWlnbk9iamVjdD48L2c+PC9nPjxnIHRyYW5zZm9ybT0idHJhbnNsYXRlKDY3MS43MDA5MDkxMzc3MjU4LCAyMTk4LjEzODQwMTAzMTQ5NCkiIGlkPSJmbG93Y2hhcnQtUi0xOSIgY2xhc3M9Im5vZGUgZGVmYXVsdCI+PHJlY3QgaGVpZ2h0PSI1NCIgd2lkdGg9IjIzMi4zNjYwNzM2MDgzOTg0NCIgeT0iLTI3IiB4PSItMTE2LjE4MzAzNjgwNDE5OTIyIiBzdHlsZT0iIiBjbGFzcz0iYmFzaWMgbGFiZWwtY29udGFpbmVyIj48L3JlY3Q+PGcgdHJhbnNmb3JtPSJ0cmFuc2xhdGUoLTg2LjE4MzAzNjgwNDE5OTIyLCAtMTIpIiBzdHlsZT0iIiBjbGFzcz0ibGFiZWwiPjxyZWN0PjwvcmVjdD48Zm9yZWlnbk9iamVjdCBoZWlnaHQ9IjI0IiB3aWR0aD0iMTcyLjM2NjA3MzYwODM5ODQ0Ij48ZGl2IHN0eWxlPSJkaXNwbGF5OiB0YWJsZS1jZWxsOyB3aGl0ZS1zcGFjZTogbm93cmFwOyBsaW5lLWhlaWdodDogMS41OyBtYXgtd2lkdGg6IDIwMHB4OyB0ZXh0LWFsaWduOiBjZW50ZXI7IiB4bWxucz0iaHR0cDovL3d3dy53My5vcmcvMTk5OS94aHRtbCI+PHNwYW4gY2xhc3M9Im5vZGVMYWJlbCI+PHA+RXhpdCB0YXNrIGV4ZWN1dGlvbiBsb29wPC9wPjwvc3Bhbj48L2Rpdj48L2ZvcmVpZ25PYmplY3Q+PC9nPjwvZz48ZyB0cmFuc2Zvcm09InRyYW5zbGF0ZSg2NzEuNzAwOTA5MTM3NzI1OCwgMjM2NS43NTQ0NzQ2Mzk4OTI2KSIgaWQ9ImZsb3djaGFydC1TLTIwIiBjbGFzcz0ibm9kZSBkZWZhdWx0Ij48cmVjdCBoZWlnaHQ9IjU0IiB3aWR0aD0iMjU5Ljk5NTU0NDQzMzU5Mzc1IiB5PSItMjciIHg9Ii0xMjkuOTk3NzcyMjE2Nzk2ODgiIHN0eWxlPSIiIGNsYXNzPSJiYXNpYyBsYWJlbC1jb250YWluZXIiPjwvcmVjdD48ZyB0cmFuc2Zvcm09InRyYW5zbGF0ZSgtOTkuOTk3NzcyMjE2Nzk2ODgsIC0xMikiIHN0eWxlPSIiIGNsYXNzPSJsYWJlbCI+PHJlY3Q+PC9yZWN0Pjxmb3JlaWduT2JqZWN0IGhlaWdodD0iMjQiIHdpZHRoPSIxOTkuOTk1NTQ0NDMzNTkzNzUiPjxkaXYgc3R5bGU9ImRpc3BsYXk6IHRhYmxlLWNlbGw7IHdoaXRlLXNwYWNlOiBub3dyYXA7IGxpbmUtaGVpZ2h0OiAxLjU7IG1heC13aWR0aDogMjAwcHg7IHRleHQtYWxpZ246IGNlbnRlcjsiIHhtbG5zPSJodHRwOi8vd3d3LnczLm9yZy8xOTk5L3hodG1sIj48c3BhbiBjbGFzcz0ibm9kZUxhYmVsIj48cD5HZXQgQU1SIHN0YXR1cyBmcm9tIHZlaGljbGVzIEFQSTwvcD48L3NwYW4+PC9kaXY+PC9mb3JlaWduT2JqZWN0PjwvZz48L2c+PGcgdHJhbnNmb3JtPSJ0cmFuc2xhdGUoNjcxLjcwMDkwOTEzNzcyNTgsIDI1NTYuMjI3NjkxNjUwMzkwNikiIGlkPSJmbG93Y2hhcnQtVC0yMSIgY2xhc3M9Im5vZGUgZGVmYXVsdCI+PHJlY3QgaGVpZ2h0PSI1NCIgd2lkdGg9IjI1OS45OTU1NDQ0MzM1OTM3NSIgeT0iLTI3IiB4PSItMTI5Ljk5Nzc3MjIxNjc5Njg4IiBzdHlsZT0iIiBjbGFzcz0iYmFzaWMgbGFiZWwtY29udGFpbmVyIj48L3JlY3Q+PGcgdHJhbnNmb3JtPSJ0cmFuc2xhdGUoLTk5Ljk5Nzc3MjIxNjc5Njg4LCAtMTIpIiBzdHlsZT0iIiBjbGFzcz0ibGFiZWwiPjxyZWN0PjwvcmVjdD48Zm9yZWlnbk9iamVjdCBoZWlnaHQ9IjI0IiB3aWR0aD0iMTk5Ljk5NTU0NDQzMzU5Mzc1Ij48ZGl2IHN0eWxlPSJkaXNwbGF5OiB0YWJsZS1jZWxsOyB3aGl0ZS1zcGFjZTogbm93cmFwOyBsaW5lLWhlaWdodDogMS41OyBtYXgtd2lkdGg6IDIwMHB4OyB0ZXh0LWFsaWduOiBjZW50ZXI7IiB4bWxucz0iaHR0cDovL3d3dy53My5vcmcvMTk5OS94aHRtbCI+PHNwYW4gY2xhc3M9Im5vZGVMYWJlbCI+PHA+RXh0cmFjdCB3b3JrU3RhdHVzLCBhYm5vcm1hbFN0YXR1cywgYmF0dGVyeSBsZXZlbDwvcD48L3NwYW4+PC9kaXY+PC9mb3JlaWduT2JqZWN0PjwvZz48L2c+PGcgdHJhbnNmb3JtPSJ0cmFuc2xhdGUoNjcxLjcwMDkwOTEzNzcyNTgsIDI3MjMuODQzNzY1MjU4Nzg5KSIgaWQ9ImZsb3djaGFydC1VLTIyIiBjbGFzcz0ibm9kZSBkZWZhdWx0Ij48cG9seWdvbiB0cmFuc2Zvcm09InRyYW5zbGF0ZSgtOTAuNjE2MDczNjA4Mzk4NDQsOTAuNjE2MDczNjA4Mzk4NDQpIiBjbGFzcz0ibGFiZWwtY29udGFpbmVyIiBwb2ludHM9IjkwLjYxNjA3MzYwODM5ODQ0LDAgMTgxLjIzMjE0NzIxNjc5Njg4LC05MC42MTYwNzM2MDgzOTg0NCA5MC42MTYwNzM2MDgzOTg0NCwtMTgxLjIzMjE0NzIxNjc5Njg4IDAsLTkwLjYxNjA3MzYwODM5ODQ0Ij48L3BvbHlnb24+PGcgdHJhbnNmb3JtPSJ0cmFuc2xhdGUoLTYzLjYxNjA3MzYwODM5ODQ0LCAtMTIpIiBzdHlsZT0iIiBjbGFzcz0ibGFiZWwiPjxyZWN0PjwvcmVjdD48Zm9yZWlnbk9iamVjdCBoZWlnaHQ9IjI0IiB3aWR0aD0iMTI3LjIzMjE0NzIxNjc5Njg4Ij48ZGl2IHN0eWxlPSJkaXNwbGF5OiB0YWJsZS1jZWxsOyB3aGl0ZS1zcGFjZTogbm93cmFwOyBsaW5lLWhlaWdodDogMS41OyBtYXgtd2lkdGg6IDIwMHB4OyB0ZXh0LWFsaWduOiBjZW50ZXI7IiB4bWxucz0iaHR0cDovL3d3dy53My5vcmcvMTk5OS94aHRtbCI+PHNwYW4gY2xhc3M9Im5vZGVMYWJlbCI+PHA+SXMgYmF0dGVyeSAmbHQ7PSAxMCU/PC9wPjwvc3Bhbj48L2Rpdj48L2ZvcmVpZ25PYmplY3Q+PC9nPjwvZz48ZyB0cmFuc2Zvcm09InRyYW5zbGF0ZSg1ODkuMjAyMDIzMDI5MzI3NCwgMjkxNC4zMTY5ODIyNjkyODcpIiBpZD0iZmxvd2NoYXJ0LVYtMjMiIGNsYXNzPSJub2RlIGRlZmF1bHQiPjxyZWN0IGhlaWdodD0iNTQiIHdpZHRoPSIyNTkuOTk1NTQ0NDMzNTkzNzUiIHk9Ii0yNyIgeD0iLTEyOS45OTc3NzIyMTY3OTY4OCIgc3R5bGU9IiIgY2xhc3M9ImJhc2ljIGxhYmVsLWNvbnRhaW5lciI+PC9yZWN0PjxnIHRyYW5zZm9ybT0idHJhbnNsYXRlKC05OS45OTc3NzIyMTY3OTY4OCwgLTEyKSIgc3R5bGU9IiIgY2xhc3M9ImxhYmVsIj48cmVjdD48L3JlY3Q+PGZvcmVpZ25PYmplY3QgaGVpZ2h0PSIyNCIgd2lkdGg9IjE5OS45OTU1NDQ0MzM1OTM3NSI+PGRpdiBzdHlsZT0iZGlzcGxheTogdGFibGUtY2VsbDsgd2hpdGUtc3BhY2U6IG5vd3JhcDsgbGluZS1oZWlnaHQ6IDEuNTsgbWF4LXdpZHRoOiAyMDBweDsgdGV4dC1hbGlnbjogY2VudGVyOyIgeG1sbnM9Imh0dHA6Ly93d3cudzMub3JnLzE5OTkveGh0bWwiPjxzcGFuIGNsYXNzPSJub2RlTGFiZWwiPjxwPlJldHJpZXZlIFNNQVJUX0NIQVJHRSBjb25maWc8L3A+PC9zcGFuPjwvZGl2PjwvZm9yZWlnbk9iamVjdD48L2c+PC9nPjxnIHRyYW5zZm9ybT0idHJhbnNsYXRlKDU4OS4yMDIwMjMwMjkzMjc0LCAzMDQxLjE3NDEyNTY3MTM4NjcpIiBpZD0iZmxvd2NoYXJ0LVctMjQiIGNsYXNzPSJub2RlIGRlZmF1bHQiPjxyZWN0IGhlaWdodD0iNTQiIHdpZHRoPSIyNTkuOTk1NTQ0NDMzNTkzNzUiIHk9Ii0yNyIgeD0iLTEyOS45OTc3NzIyMTY3OTY4OCIgc3R5bGU9IiIgY2xhc3M9ImJhc2ljIGxhYmVsLWNvbnRhaW5lciI+PC9yZWN0PjxnIHRyYW5zZm9ybT0idHJhbnNsYXRlKC05OS45OTc3NzIyMTY3OTY4OCwgLTEyKSIgc3R5bGU9IiIgY2xhc3M9ImxhYmVsIj48cmVjdD48L3JlY3Q+PGZvcmVpZ25PYmplY3QgaGVpZ2h0PSIyNCIgd2lkdGg9IjE5OS45OTU1NDQ0MzM1OTM3NSI+PGRpdiBzdHlsZT0iZGlzcGxheTogdGFibGUtY2VsbDsgd2hpdGUtc3BhY2U6IG5vd3JhcDsgbGluZS1oZWlnaHQ6IDEuNTsgbWF4LXdpZHRoOiAyMDBweDsgdGV4dC1hbGlnbjogY2VudGVyOyIgeG1sbnM9Imh0dHA6Ly93d3cudzMub3JnLzE5OTkveGh0bWwiPjxzcGFuIGNsYXNzPSJub2RlTGFiZWwiPjxwPkxvb3AgdW50aWwgYmF0dGVyeSByZWFjaGVzIGNvbmZpZ3VyZWQgbWluaW11bSBjYW5DaGFyZ2VCYXR0ZXJ5VmFsdWU8L3A+PC9zcGFuPjwvZGl2PjwvZm9yZWlnbk9iamVjdD48L2c+PC9nPjxnIHRyYW5zZm9ybT0idHJhbnNsYXRlKDY3MS43MDA5MDkxMzc3MjU4LCAzMTQ1LjE3NDEyNTY3MTM4NjcpIiBpZD0iZmxvd2NoYXJ0LVgtMjUiIGNsYXNzPSJub2RlIGRlZmF1bHQiPjxyZWN0IGhlaWdodD0iNTQiIHdpZHRoPSIyNTkuOTk1NTQ0NDMzNTkzNzUiIHk9Ii0yNyIgeD0iLTEyOS45OTc3NzIyMTY3OTY4OCIgc3R5bGU9IiIgY2xhc3M9ImJhc2ljIGxhYmVsLWNvbnRhaW5lciI+PC9yZWN0PjxnIHRyYW5zZm9ybT0idHJhbnNsYXRlKC05OS45OTc3NzIyMTY3OTY4OCwgLTEyKSIgc3R5bGU9IiIgY2xhc3M9ImxhYmVsIj48cmVjdD48L3JlY3Q+PGZvcmVpZ25PYmplY3QgaGVpZ2h0PSIyNCIgd2lkdGg9IjE5OS45OTU1NDQ0MzM1OTM3NSI+PGRpdiBzdHlsZT0iZGlzcGxheTogdGFibGUtY2VsbDsgd2hpdGUtc3BhY2U6IG5vd3JhcDsgbGluZS1oZWlnaHQ6IDEuNTsgbWF4LXdpZHRoOiAyMDBweDsgdGV4dC1hbGlnbjogY2VudGVyOyIgeG1sbnM9Imh0dHA6Ly93d3cudzMub3JnLzE5OTkveGh0bWwiPjxzcGFuIGNsYXNzPSJub2RlTGFiZWwiPjxwPkNvbnRpbnVlIGV4ZWN1dGlvbiBhZnRlciBiYXR0ZXJ5IGNoYXJnZTwvcD48L3NwYW4+PC9kaXY+PC9mb3JlaWduT2JqZWN0PjwvZz48L2c+PGcgdHJhbnNmb3JtPSJ0cmFuc2xhdGUoNjcxLjcwMDkwOTEzNzcyNTgsIDMzNDkuMTcxODk3ODg4MTgzNikiIGlkPSJmbG93Y2hhcnQtWS0yNiIgY2xhc3M9Im5vZGUgZGVmYXVsdCI+PHBvbHlnb24gdHJhbnNmb3JtPSJ0cmFuc2xhdGUoLTEyNi45OTc3NzIyMTY3OTY4OCwxMjYuOTk3NzcyMjE2Nzk2ODgpIiBjbGFzcz0ibGFiZWwtY29udGFpbmVyIiBwb2ludHM9IjEyNi45OTc3NzIyMTY3OTY4OCwwIDI1My45OTU1NDQ0MzM1OTM3NSwtMTI2Ljk5Nzc3MjIxNjc5Njg4IDEyNi45OTc3NzIyMTY3OTY4OCwtMjUzLjk5NTU0NDQzMzU5Mzc1IDAsLTEyNi45OTc3NzIyMTY3OTY4OCI+PC9wb2x5Z29uPjxnIHRyYW5zZm9ybT0idHJhbnNsYXRlKC05OS45OTc3NzIyMTY3OTY4OCwgLTEyKSIgc3R5bGU9IiIgY2xhc3M9ImxhYmVsIj48cmVjdD48L3JlY3Q+PGZvcmVpZ25PYmplY3QgaGVpZ2h0PSIyNCIgd2lkdGg9IjE5OS45OTU1NDQ0MzM1OTM3NSI+PGRpdiBzdHlsZT0iZGlzcGxheTogdGFibGUtY2VsbDsgd2hpdGUtc3BhY2U6IG5vd3JhcDsgbGluZS1oZWlnaHQ6IDEuNTsgbWF4LXdpZHRoOiAyMDBweDsgdGV4dC1hbGlnbjogY2VudGVyOyIgeG1sbnM9Imh0dHA6Ly93d3cudzMub3JnLzE5OTkveGh0bWwiPjxzcGFuIGNsYXNzPSJub2RlTGFiZWwiPjxwPklzIEFNUiBub3JtYWw/IHdvcmtTdGF0dXMgPT0gMSBhbmQgYWJub3JtYWxTdGF0dXMgPT0gMTwvcD48L3NwYW4+PC9kaXY+PC9mb3JlaWduT2JqZWN0PjwvZz48L2c+PGcgdHJhbnNmb3JtPSJ0cmFuc2xhdGUoODI1LjE5ODY4MTM1NDUyMjcsIDM2NzYuMDI0NTg1NzIzODc3KSIgaWQ9ImZsb3djaGFydC1aLTI3IiBjbGFzcz0ibm9kZSBkZWZhdWx0Ij48cmVjdCBoZWlnaHQ9IjU0IiB3aWR0aD0iMjU5Ljk5NTU0NDQzMzU5Mzc1IiB5PSItMjciIHg9Ii0xMjkuOTk3NzcyMjE2Nzk2ODgiIHN0eWxlPSIiIGNsYXNzPSJiYXNpYyBsYWJlbC1jb250YWluZXIiPjwvcmVjdD48ZyB0cmFuc2Zvcm09InRyYW5zbGF0ZSgtOTkuOTk3NzcyMjE2Nzk2ODgsIC0xMikiIHN0eWxlPSIiIGNsYXNzPSJsYWJlbCI+PHJlY3Q+PC9yZWN0Pjxmb3JlaWduT2JqZWN0IGhlaWdodD0iMjQiIHdpZHRoPSIxOTkuOTk1NTQ0NDMzNTkzNzUiPjxkaXYgc3R5bGU9ImRpc3BsYXk6IHRhYmxlLWNlbGw7IHdoaXRlLXNwYWNlOiBub3dyYXA7IGxpbmUtaGVpZ2h0OiAxLjU7IG1heC13aWR0aDogMjAwcHg7IHRleHQtYWxpZ246IGNlbnRlcjsiIHhtbG5zPSJodHRwOi8vd3d3LnczLm9yZy8xOTk5L3hodG1sIj48c3BhbiBjbGFzcz0ibm9kZUxhYmVsIj48cD5DYWxsIGNvbnRpbnVlVGFzayBBUEkgd2l0aCBydW50aW1lIGlkPC9wPjwvc3Bhbj48L2Rpdj48L2ZvcmVpZ25PYmplY3Q+PC9nPjwvZz48ZyB0cmFuc2Zvcm09InRyYW5zbGF0ZSg0MzQuNzEwOTUxODA1MTE0NzUsIDM2NzYuMDI0NTg1NzIzODc3KSIgaWQ9ImZsb3djaGFydC1BQS0yOCIgY2xhc3M9Im5vZGUgZGVmYXVsdCI+PHBvbHlnb24gdHJhbnNmb3JtPSJ0cmFuc2xhdGUoLTEyNi45OTc3NzIyMTY3OTY4OCwxMjYuOTk3NzcyMjE2Nzk2ODgpIiBjbGFzcz0ibGFiZWwtY29udGFpbmVyIiBwb2ludHM9IjEyNi45OTc3NzIyMTY3OTY4OCwwIDI1My45OTU1NDQ0MzM1OTM3NSwtMTI2Ljk5Nzc3MjIxNjc5Njg4IDEyNi45OTc3NzIyMTY3OTY4OCwtMjUzLjk5NTU0NDQzMzU5Mzc1IDAsLTEyNi45OTc3NzIyMTY3OTY4OCI+PC9wb2x5Z29uPjxnIHRyYW5zZm9ybT0idHJhbnNsYXRlKC05OS45OTc3NzIyMTY3OTY4OCwgLTEyKSIgc3R5bGU9IiIgY2xhc3M9ImxhYmVsIj48cmVjdD48L3JlY3Q+PGZvcmVpZ25PYmplY3QgaGVpZ2h0PSIyNCIgd2lkdGg9IjE5OS45OTU1NDQ0MzM1OTM3NSI+PGRpdiBzdHlsZT0iZGlzcGxheTogdGFibGUtY2VsbDsgd2hpdGUtc3BhY2U6IG5vd3JhcDsgbGluZS1oZWlnaHQ6IDEuNTsgbWF4LXdpZHRoOiAyMDBweDsgdGV4dC1hbGlnbjogY2VudGVyOyIgeG1sbnM9Imh0dHA6Ly93d3cudzMub3JnLzE5OTkveGh0bWwiPjxzcGFuIGNsYXNzPSJub2RlTGFiZWwiPjxwPklzIEFNUiBjaGFyZ2luZyBvciBhYm5vcm1hbD8gd29ya1N0YXR1cyA9PSAzIG9yIGFibm9ybWFsU3RhdHVzICE9IDE8L3A+PC9zcGFuPjwvZGl2PjwvZm9yZWlnbk9iamVjdD48L2c+PC9nPjxnIHRyYW5zZm9ybT0idHJhbnNsYXRlKDUzOS40NDE5NzQ2Mzk4OTI2LCAzNSkiIGlkPSJmbG93Y2hhcnQtQUItMjkiIGNsYXNzPSJub2RlIGRlZmF1bHQiPjxyZWN0IGhlaWdodD0iNTQiIHdpZHRoPSIyNTkuOTk1NTQ0NDMzNTkzNzUiIHk9Ii0yNyIgeD0iLTEyOS45OTc3NzIyMTY3OTY4OCIgc3R5bGU9IiIgY2xhc3M9ImJhc2ljIGxhYmVsLWNvbnRhaW5lciI+PC9yZWN0PjxnIHRyYW5zZm9ybT0idHJhbnNsYXRlKC05OS45OTc3NzIyMTY3OTY4OCwgLTEyKSIgc3R5bGU9IiIgY2xhc3M9ImxhYmVsIj48cmVjdD48L3JlY3Q+PGZvcmVpZ25PYmplY3QgaGVpZ2h0PSIyNCIgd2lkdGg9IjE5OS45OTU1NDQ0MzM1OTM3NSI+PGRpdiBzdHlsZT0iZGlzcGxheTogdGFibGUtY2VsbDsgd2hpdGUtc3BhY2U6IG5vd3JhcDsgbGluZS1oZWlnaHQ6IDEuNTsgbWF4LXdpZHRoOiAyMDBweDsgdGV4dC1hbGlnbjogY2VudGVyOyIgeG1sbnM9Imh0dHA6Ly93d3cudzMub3JnLzE5OTkveGh0bWwiPjxzcGFuIGNsYXNzPSJub2RlTGFiZWwiPjxwPkNhbGwgcGF1c2VUYXNrIEFQSSB3aXRoIHJ1bnRpbWUgaWQ8L3A+PC9zcGFuPjwvZGl2PjwvZm9yZWlnbk9iamVjdD48L2c+PC9nPjxnIHRyYW5zZm9ybT0idHJhbnNsYXRlKDY3MS43MDA5MDkxMzc3MjU4LCAzODgwLjAyMjM1Nzk0MDY3NCkiIGlkPSJmbG93Y2hhcnQtQUMtMzAiIGNsYXNzPSJub2RlIGRlZmF1bHQiPjxyZWN0IGhlaWdodD0iNTQiIHdpZHRoPSIyNTkuOTk1NTQ0NDMzNTkzNzUiIHk9Ii0yNyIgeD0iLTEyOS45OTc3NzIyMTY3OTY4OCIgc3R5bGU9IiIgY2xhc3M9ImJhc2ljIGxhYmVsLWNvbnRhaW5lciI+PC9yZWN0PjxnIHRyYW5zZm9ybT0idHJhbnNsYXRlKC05OS45OTc3NzIyMTY3OTY4OCwgLTEyKSIgc3R5bGU9IiIgY2xhc3M9ImxhYmVsIj48cmVjdD48L3JlY3Q+PGZvcmVpZ25PYmplY3QgaGVpZ2h0PSIyNCIgd2lkdGg9IjE5OS45OTU1NDQ0MzM1OTM3NSI+PGRpdiBzdHlsZT0iZGlzcGxheTogdGFibGUtY2VsbDsgd2hpdGUtc3BhY2U6IG5vd3JhcDsgbGluZS1oZWlnaHQ6IDEuNTsgbWF4LXdpZHRoOiAyMDBweDsgdGV4dC1hbGlnbjogY2VudGVyOyIgeG1sbnM9Imh0dHA6Ly93d3cudzMub3JnLzE5OTkveGh0bWwiPjxzcGFuIGNsYXNzPSJub2RlTGFiZWwiPjxwPkxvb3AgYmFjayB0byBleGVjdXRpb24gbG9vcDwvcD48L3NwYW4+PC9kaXY+PC9mb3JlaWduT2JqZWN0PjwvZz48L2c+PGcgdHJhbnNmb3JtPSJ0cmFuc2xhdGUoNzU0LjE5OTc5NTI0NjEyNDMsIDQwODQuMDIwMTMwMTU3NDcwNykiIGlkPSJmbG93Y2hhcnQtQUQtMzEiIGNsYXNzPSJub2RlIGRlZmF1bHQiPjxwb2x5Z29uIHRyYW5zZm9ybT0idHJhbnNsYXRlKC0xMjYuOTk3NzcyMjE2Nzk2ODgsMTI2Ljk5Nzc3MjIxNjc5Njg4KSIgY2xhc3M9ImxhYmVsLWNvbnRhaW5lciIgcG9pbnRzPSIxMjYuOTk3NzcyMjE2Nzk2ODgsMCAyNTMuOTk1NTQ0NDMzNTkzNzUsLTEyNi45OTc3NzIyMTY3OTY4OCAxMjYuOTk3NzcyMjE2Nzk2ODgsLTI1My45OTU1NDQ0MzM1OTM3NSAwLC0xMjYuOTk3NzcyMjE2Nzk2ODgiPjwvcG9seWdvbj48ZyB0cmFuc2Zvcm09InRyYW5zbGF0ZSgtOTkuOTk3NzcyMjE2Nzk2ODgsIC0xMikiIHN0eWxlPSIiIGNsYXNzPSJsYWJlbCI+PHJlY3Q+PC9yZWN0Pjxmb3JlaWduT2JqZWN0IGhlaWdodD0iMjQiIHdpZHRoPSIxOTkuOTk1NTQ0NDMzNTkzNzUiPjxkaXYgc3R5bGU9ImRpc3BsYXk6IHRhYmxlLWNlbGw7IHdoaXRlLXNwYWNlOiBub3dyYXA7IGxpbmUtaGVpZ2h0OiAxLjU7IG1heC13aWR0aDogMjAwcHg7IHRleHQtYWxpZ246IGNlbnRlcjsiIHhtbG5zPSJodHRwOi8vd3d3LnczLm9yZy8xOTk5L3hodG1sIj48c3BhbiBjbGFzcz0ibm9kZUxhYmVsIj48cD5NYXhpbXVtIGF0dGVtcHRzIHJlYWNoZWQ/PC9wPjwvc3Bhbj48L2Rpdj48L2ZvcmVpZ25PYmplY3Q+PC9nPjwvZz48ZyB0cmFuc2Zvcm09InRyYW5zbGF0ZSg0MjguNTA2NzA2MjM3NzkyOTcsIDQzMTAuODc1MDQ1Nzc2MzY3KSIgaWQ9ImZsb3djaGFydC1BRS0zMiIgY2xhc3M9Im5vZGUgZGVmYXVsdCI+PHJlY3QgaGVpZ2h0PSI1NCIgd2lkdGg9IjI1OS45OTU1NDQ0MzM1OTM3NSIgeT0iLTI3IiB4PSItMTI5Ljk5Nzc3MjIxNjc5Njg4IiBzdHlsZT0iIiBjbGFzcz0iYmFzaWMgbGFiZWwtY29udGFpbmVyIj48L3JlY3Q+PGcgdHJhbnNmb3JtPSJ0cmFuc2xhdGUoLTk5Ljk5Nzc3MjIxNjc5Njg4LCAtMTIpIiBzdHlsZT0iIiBjbGFzcz0ibGFiZWwiPjxyZWN0PjwvcmVjdD48Zm9yZWlnbk9iamVjdCBoZWlnaHQ9IjI0IiB3aWR0aD0iMTk5Ljk5NTU0NDQzMzU5Mzc1Ij48ZGl2IHN0eWxlPSJkaXNwbGF5OiB0YWJsZS1jZWxsOyB3aGl0ZS1zcGFjZTogbm93cmFwOyBsaW5lLWhlaWdodDogMS41OyBtYXgtd2lkdGg6IDIwMHB4OyB0ZXh0LWFsaWduOiBjZW50ZXI7IiB4bWxucz0iaHR0cDovL3d3dy53My5vcmcvMTk5OS94aHRtbCI+PHNwYW4gY2xhc3M9Im5vZGVMYWJlbCI+PHA+TG9nIG1heGltdW0gYXR0ZW1wdHMgcmVhY2hlZCBhbmQgZXhpdCBsb29wPC9wPjwvc3Bhbj48L2Rpdj48L2ZvcmVpZ25PYmplY3Q+PC9nPjwvZz48ZyB0cmFuc2Zvcm09InRyYW5zbGF0ZSgyMjAuMTA5MzgyNjI5Mzk0NTMsIDIxOTguMTM4NDAxMDMxNDk0KSIgaWQ9ImZsb3djaGFydC1BRi0zMyIgY2xhc3M9Im5vZGUgZGVmYXVsdCI+PHJlY3QgaGVpZ2h0PSI1NCIgd2lkdGg9IjI1OS45OTU1NDQ0MzM1OTM3NSIgeT0iLTI3IiB4PSItMTI5Ljk5Nzc3MjIxNjc5Njg4IiBzdHlsZT0iIiBjbGFzcz0iYmFzaWMgbGFiZWwtY29udGFpbmVyIj48L3JlY3Q+PGcgdHJhbnNmb3JtPSJ0cmFuc2xhdGUoLTk5Ljk5Nzc3MjIxNjc5Njg4LCAtMTIpIiBzdHlsZT0iIiBjbGFzcz0ibGFiZWwiPjxyZWN0PjwvcmVjdD48Zm9yZWlnbk9iamVjdCBoZWlnaHQ9IjI0IiB3aWR0aD0iMTk5Ljk5NTU0NDQzMzU5Mzc1Ij48ZGl2IHN0eWxlPSJkaXNwbGF5OiB0YWJsZS1jZWxsOyB3aGl0ZS1zcGFjZTogbm93cmFwOyBsaW5lLWhlaWdodDogMS41OyBtYXgtd2lkdGg6IDIwMHB4OyB0ZXh0LWFsaWduOiBjZW50ZXI7IiB4bWxucz0iaHR0cDovL3d3dy53My5vcmcvMTk5OS94aHRtbCI+PHNwYW4gY2xhc3M9Im5vZGVMYWJlbCI+PHA+QWZ0ZXIgdGFzayBjb21wbGV0aW9uLCBjaGVjayBiYXR0ZXJ5IGxldmVsPC9wPjwvc3Bhbj48L2Rpdj48L2ZvcmVpZ25PYmplY3Q+PC9nPjwvZz48ZyB0cmFuc2Zvcm09InRyYW5zbGF0ZSgyMjAuMTA5MzgyNjI5Mzk0NTMsIDIzNjUuNzU0NDc0NjM5ODkyNikiIGlkPSJmbG93Y2hhcnQtQUctMzQiIGNsYXNzPSJub2RlIGRlZmF1bHQiPjxwb2x5Z29uIHRyYW5zZm9ybT0idHJhbnNsYXRlKC05MC42MTYwNzM2MDgzOTg0NCw5MC42MTYwNzM2MDgzOTg0NCkiIGNsYXNzPSJsYWJlbC1jb250YWluZXIiIHBvaW50cz0iOTAuNjE2MDczNjA4Mzk4NDQsMCAxODEuMjMyMTQ3MjE2Nzk2ODgsLTkwLjYxNjA3MzYwODM5ODQ0IDkwLjYxNjA3MzYwODM5ODQ0LC0xODEuMjMyMTQ3MjE2Nzk2ODggMCwtOTAuNjE2MDczNjA4Mzk4NDQiPjwvcG9seWdvbj48ZyB0cmFuc2Zvcm09InRyYW5zbGF0ZSgtNjMuNjE2MDczNjA4Mzk4NDQsIC0xMikiIHN0eWxlPSIiIGNsYXNzPSJsYWJlbCI+PHJlY3Q+PC9yZWN0Pjxmb3JlaWduT2JqZWN0IGhlaWdodD0iMjQiIHdpZHRoPSIxMjcuMjMyMTQ3MjE2Nzk2ODgiPjxkaXYgc3R5bGU9ImRpc3BsYXk6IHRhYmxlLWNlbGw7IHdoaXRlLXNwYWNlOiBub3dyYXA7IGxpbmUtaGVpZ2h0OiAxLjU7IG1heC13aWR0aDogMjAwcHg7IHRleHQtYWxpZ246IGNlbnRlcjsiIHhtbG5zPSJodHRwOi8vd3d3LnczLm9yZy8xOTk5L3hodG1sIj48c3BhbiBjbGFzcz0ibm9kZUxhYmVsIj48cD5JcyBiYXR0ZXJ5ICZsdDs9IDUwJT88L3A+PC9zcGFuPjwvZGl2PjwvZm9yZWlnbk9iamVjdD48L2c+PC9nPjxnIHRyYW5zZm9ybT0idHJhbnNsYXRlKDMwOC4zMDU4MTMzMTI1MzA1LCAyNTU2LjIyNzY5MTY1MDM5MDYpIiBpZD0iZmxvd2NoYXJ0LUFILTM1IiBjbGFzcz0ibm9kZSBkZWZhdWx0Ij48cmVjdCBoZWlnaHQ9IjU0IiB3aWR0aD0iMjU5Ljk5NTU0NDQzMzU5Mzc1IiB5PSItMjciIHg9Ii0xMjkuOTk3NzcyMjE2Nzk2ODgiIHN0eWxlPSIiIGNsYXNzPSJiYXNpYyBsYWJlbC1jb250YWluZXIiPjwvcmVjdD48ZyB0cmFuc2Zvcm09InRyYW5zbGF0ZSgtOTkuOTk3NzcyMjE2Nzk2ODgsIC0xMikiIHN0eWxlPSIiIGNsYXNzPSJsYWJlbCI+PHJlY3Q+PC9yZWN0Pjxmb3JlaWduT2JqZWN0IGhlaWdodD0iMjQiIHdpZHRoPSIxOTkuOTk1NTQ0NDMzNTkzNzUiPjxkaXYgc3R5bGU9ImRpc3BsYXk6IHRhYmxlLWNlbGw7IHdoaXRlLXNwYWNlOiBub3dyYXA7IGxpbmUtaGVpZ2h0OiAxLjU7IG1heC13aWR0aDogMjAwcHg7IHRleHQtYWxpZ246IGNlbnRlcjsiIHhtbG5zPSJodHRwOi8vd3d3LnczLm9yZy8xOTk5L3hodG1sIj48c3BhbiBjbGFzcz0ibm9kZUxhYmVsIj48cD5FbmFibGUgc21hcnQgY2hhcmdlIHZpYSBBUEkgc2V0U21hcnRDaGFyZ2VPbjwvcD48L3NwYW4+PC9kaXY+PC9mb3JlaWduT2JqZWN0PjwvZz48L2c+PGcgdHJhbnNmb3JtPSJ0cmFuc2xhdGUoMjIwLjEwOTM4MjYyOTM5NDUzLCAyNzIzLjg0Mzc2NTI1ODc4OSkiIGlkPSJmbG93Y2hhcnQtQUktMzYiIGNsYXNzPSJub2RlIGRlZmF1bHQiPjxyZWN0IGhlaWdodD0iNTQiIHdpZHRoPSIyMzcuNDE1MTYxMTMyODEyNSIgeT0iLTI3IiB4PSItMTE4LjcwNzU4MDU2NjQwNjI1IiBzdHlsZT0iIiBjbGFzcz0iYmFzaWMgbGFiZWwtY29udGFpbmVyIj48L3JlY3Q+PGcgdHJhbnNmb3JtPSJ0cmFuc2xhdGUoLTg4LjcwNzU4MDU2NjQwNjI1LCAtMTIpIiBzdHlsZT0iIiBjbGFzcz0ibGFiZWwiPjxyZWN0PjwvcmVjdD48Zm9yZWlnbk9iamVjdCBoZWlnaHQ9IjI0IiB3aWR0aD0iMTc3LjQxNTE2MTEzMjgxMjUiPjxkaXYgc3R5bGU9ImRpc3BsYXk6IHRhYmxlLWNlbGw7IHdoaXRlLXNwYWNlOiBub3dyYXA7IGxpbmUtaGVpZ2h0OiAxLjU7IG1heC13aWR0aDogMjAwcHg7IHRleHQtYWxpZ246IGNlbnRlcjsiIHhtbG5zPSJodHRwOi8vd3d3LnczLm9yZy8xOTk5L3hodG1sIj48c3BhbiBjbGFzcz0ibm9kZUxhYmVsIj48cD5UYXNrIGV4ZWN1dGlvbiBjb21wbGV0ZTwvcD48L3NwYW4+PC9kaXY+PC9mb3JlaWduT2JqZWN0PjwvZz48L2c+PGcgdHJhbnNmb3JtPSJ0cmFuc2xhdGUoMjIwLjEwOTM4MjYyOTM5NDUzLCAyOTE0LjMxNjk4MjI2OTI4NykiIGlkPSJmbG93Y2hhcnQtQUotMzciIGNsYXNzPSJub2RlIGRlZmF1bHQiPjxyZWN0IGhlaWdodD0iNTQiIHdpZHRoPSIxNDMuNTk4MjA1NTY2NDA2MjUiIHk9Ii0yNyIgeD0iLTcxLjc5OTEwMjc4MzIwMzEyIiBzdHlsZT0iIiBjbGFzcz0iYmFzaWMgbGFiZWwtY29udGFpbmVyIj48L3JlY3Q+PGcgdHJhbnNmb3JtPSJ0cmFuc2xhdGUoLTQxLjc5OTEwMjc4MzIwMzEyNSwgLTEyKSIgc3R5bGU9IiIgY2xhc3M9ImxhYmVsIj48cmVjdD48L3JlY3Q+PGZvcmVpZ25PYmplY3QgaGVpZ2h0PSIyNCIgd2lkdGg9IjgzLjU5ODIwNTU2NjQwNjI1Ij48ZGl2IHN0eWxlPSJkaXNwbGF5OiB0YWJsZS1jZWxsOyB3aGl0ZS1zcGFjZTogbm93cmFwOyBsaW5lLWhlaWdodDogMS41OyBtYXgtd2lkdGg6IDIwMHB4OyB0ZXh0LWFsaWduOiBjZW50ZXI7IiB4bWxucz0iaHR0cDovL3d3dy53My5vcmcvMTk5OS94aHRtbCI+PHNwYW4gY2xhc3M9Im5vZGVMYWJlbCI+PHA+RW5kIFByb2Nlc3M8L3A+PC9zcGFuPjwvZGl2PjwvZm9yZWlnbk9iamVjdD48L2c+PC9nPjwvZz48L2c+PC9nPjwvc3ZnPg==;" vertex="1" parent="1">
                        <mxGeometry x="-6620" y="-7060" width="1007.5914916992188" height="4345.875" as="geometry"/>
                    </mxCell>
                </UserObject>
            </root>
        </mxGraphModel>
    </diagram>
</mxfile>